<svg width="19" height="12" viewBox="0 0 19 12" fill="none" xmlns="http://www.w3.org/2000/svg">
<path d="M9.11572 2.93403C7.49695 2.93403 6.18169 4.24928 6.18169 5.86806C6.18169 7.48683 7.49695 8.80208 9.11572 8.80208C10.7345 8.80208 12.0498 7.48683 12.0498 5.86806C12.0498 4.24928 10.7345 2.93403 9.11572 2.93403ZM8.89314 4.99796C8.52892 4.99796 8.2254 5.30148 8.2254 5.66571H7.25413C7.27437 4.75515 8.00282 4.0267 8.89314 4.0267V4.99796Z" fill="black"/>
<path d="M18.019 5.26101C17.0275 4.0267 13.4864 0 9.11572 0C4.74503 0 1.20396 4.0267 0.212464 5.26101C-0.0708214 5.605 -0.0708214 6.11087 0.212464 6.4751C1.20396 7.70941 4.74503 11.7361 9.11572 11.7361C13.4864 11.7361 17.0275 7.70941 18.019 6.4751C18.3023 6.13111 18.3023 5.62524 18.019 5.26101ZM9.11572 10.1173C6.7685 10.1173 4.86644 8.21528 4.86644 5.86806C4.86644 3.52083 6.7685 1.61877 9.11572 1.61877C11.4629 1.61877 13.365 3.52083 13.365 5.86806C13.365 8.21528 11.4629 10.1173 9.11572 10.1173Z" fill="black"/>
</svg>
