<svg width="75" height="19" viewBox="0 0 75 19" fill="none" xmlns="http://www.w3.org/2000/svg">
<path d="M0 1.65805C3.61699 -0.657612 7.40507 -0.544844 11.1069 1.97962C14.8085 -0.544995 18.5969 -0.657763 22.2139 1.6579V4.46203C18.6195 1.49207 15.0526 1.54634 11.3164 4.64083L11.1069 4.81435L10.8963 4.64053C7.1604 1.54664 3.59379 1.49267 0 4.46188V1.65805ZM0.00044324 6.45235V8.65118C3.66264 6.46562 7.30017 6.54763 11.1069 8.91184C14.9144 6.54763 18.5514 6.46562 22.2145 8.65118V6.45235C18.5731 4.6256 14.8478 4.70867 11.1069 6.69734C7.36695 4.70867 3.64166 4.62545 0.00044324 6.45235ZM0 10.7098V12.3998C3.62497 11.014 7.35764 11.0739 11.1069 12.5759C14.8562 11.0742 18.588 11.0143 22.2139 12.3995V10.7101C18.5746 9.45322 14.849 9.50779 11.1069 10.8746C7.36473 9.50794 3.63841 9.45352 0 10.7098ZM0.00044324 14.4791V15.7524C3.62999 15.0793 7.35986 15.1055 11.1069 15.835C14.8549 15.1047 18.5848 15.079 22.2145 15.7524V14.4788C18.5787 13.8328 14.8508 13.8604 11.1069 14.5622C7.36414 13.8607 3.63546 13.8329 0.00044324 14.4791ZM0.00044324 18.892H22.2142V17.9814H0.000590987L0.00044324 18.892Z" fill="#9B0A29"/>
<path d="M31.2613 3.6154C31.3699 3.5156 31.4243 3.35112 31.4243 3.12211C31.4243 2.72577 31.2069 2.52767 30.7723 2.52767H30.4624V3.76556H30.7885C30.9949 3.76556 31.1527 3.71565 31.2613 3.6154ZM31.9213 2.20052C32.192 2.40782 32.3274 2.71491 32.3274 3.12211C32.3274 3.54756 32.1948 3.86837 31.9293 4.08456C31.6638 4.30075 31.3084 4.40915 30.8631 4.40915H30.4624V5.66859H29.586V1.88966H30.783C31.271 1.88966 31.6506 1.99338 31.9213 2.20052ZM33.8878 4.20698H34.6679L34.2778 2.53868L33.8878 4.20698ZM35.0099 5.66829L34.8176 4.856H33.738L33.5511 5.66829H32.6429L33.7594 1.88951H34.8227L35.9397 5.66829H35.0099ZM36.1214 5.23214L36.5862 4.76313C36.704 4.87952 36.8223 4.96515 36.9416 5.01942C37.0609 5.074 37.1936 5.10143 37.3397 5.10143C37.5355 5.10143 37.6887 5.05304 37.7994 4.95686C37.9099 4.86037 37.9649 4.72499 37.9649 4.55056C37.9649 4.37613 37.9089 4.24075 37.7967 4.14426C37.6844 4.04823 37.5196 3.99984 37.3022 3.99984H36.9122L37.0138 3.35639H37.3183C37.4927 3.35639 37.6281 3.31539 37.7246 3.23368C37.8207 3.15197 37.8688 3.03648 37.8688 2.88768C37.8688 2.75652 37.8294 2.65039 37.7511 2.56868C37.6728 2.48666 37.5516 2.44581 37.3878 2.44581C37.1419 2.44581 36.8927 2.54772 36.6397 2.75125L36.2336 2.29882C36.5828 1.96413 37.0064 1.79694 37.5057 1.79694C37.7619 1.79694 37.9854 1.83976 38.176 1.92509C38.3666 2.01042 38.5127 2.12771 38.6142 2.27696C38.7157 2.42576 38.7664 2.59672 38.7664 2.78939C38.7664 3.01116 38.6969 3.1984 38.5582 3.35097C38.419 3.50369 38.2141 3.60726 37.9436 3.66183C38.2355 3.69455 38.4656 3.78983 38.6328 3.94797C38.8004 4.10627 38.884 4.32156 38.884 4.59428C38.884 4.82675 38.8215 5.03148 38.6971 5.20757C38.5722 5.38396 38.3976 5.52024 38.1735 5.61658C37.9489 5.71276 37.6924 5.76116 37.4037 5.76116C36.8624 5.76116 36.4349 5.58477 36.1214 5.23214ZM41.3608 4.91314C41.4801 4.84228 41.5396 4.71052 41.5396 4.51769C41.5396 4.16884 41.326 3.99441 40.8984 3.99441H40.5136V5.01957H40.8345C41.0659 5.01957 41.2413 4.98384 41.3608 4.91314ZM40.5136 2.52239V3.40027H40.8397C41.2104 3.40027 41.3957 3.24724 41.3957 2.94196C41.3957 2.78954 41.3455 2.68114 41.2459 2.61752C41.1461 2.5542 40.9878 2.52239 40.7701 2.52239H40.5136ZM42.2104 3.94541C42.3655 4.08366 42.4428 4.2908 42.4428 4.56699C42.4428 4.97058 42.3012 5.25476 42.018 5.42029C41.7348 5.58552 41.3384 5.66829 40.8289 5.66829H39.6375V1.88981H40.685C41.2048 1.88981 41.6021 1.96519 41.8765 2.11595C42.1508 2.26671 42.2878 2.51335 42.2878 2.85467C42.2878 3.07659 42.2229 3.25569 42.0929 3.39182C41.9627 3.52811 41.8018 3.61992 41.6095 3.66726C41.855 3.71445 42.0554 3.80717 42.2104 3.94541ZM46.0552 5.66829H45.1948V4.25598C45.1948 3.73631 45.2358 3.24016 45.3178 2.76768L44.2544 5.66829H43.2017V1.88951H44.0621V3.32926C44.0621 3.63078 44.0513 3.88179 44.0299 4.08155C44.0039 4.31506 43.9718 4.54781 43.9335 4.77956L45.0184 1.88951H46.0552V5.66829ZM49.5445 1.88966L49.4593 2.57652H48.5454V5.66859H47.6689V2.57652H46.7125V1.88981L49.5445 1.88966ZM53.018 5.66829H52.1576V4.25598C52.1576 3.73631 52.1986 3.24016 52.2806 2.76768L51.2171 5.66829H50.1645V1.88951H51.0248V3.32926C51.0248 3.63078 51.0141 3.88179 50.9927 4.08155C50.9667 4.31506 50.9346 4.54781 50.8964 4.77956L51.9811 1.88951H53.0179L53.018 5.66829ZM56.2453 1.88981L56.1544 2.52767H54.8504V3.43298H55.9888V4.05999H54.8504V5.02515H56.2453V5.66859H53.9744V1.88981H56.2453ZM32.199 8.48855V12.2673H31.3229V10.8714C31.1981 10.9694 31.0706 11.0421 30.9407 11.0893C30.8107 11.1368 30.6635 11.1605 30.5 11.1605C30.1399 11.1605 29.8587 11.0441 29.6556 10.8113C29.4524 10.5788 29.3509 10.2625 29.3509 9.86257V8.48855H30.2167V9.85171C30.2167 10.0735 30.2593 10.2361 30.3448 10.3397C30.4305 10.4433 30.5657 10.495 30.7511 10.495C30.9862 10.495 31.1766 10.4241 31.3229 10.2826V8.48855H32.199ZM35.432 8.48855L35.3413 9.12626H34.0372V10.0317H35.1755V10.6586H34.0372V11.6239H35.432V12.2673H33.161V8.48839L35.432 8.48855ZM39.0496 8.48855V12.2673H38.1735V9.1647H37.4037L37.2648 10.4462C37.2149 10.8787 37.1517 11.2203 37.0751 11.4709C36.9983 11.7219 36.8853 11.9182 36.7358 12.0602C36.5862 12.2019 36.3779 12.3017 36.1106 12.36L35.902 11.7329C36.0306 11.6819 36.1266 11.6111 36.1907 11.5203C36.255 11.4294 36.303 11.3068 36.3351 11.152C36.3671 10.9975 36.4027 10.748 36.4419 10.4024L36.6663 8.48855H39.0496ZM40.9386 9.36355C40.8156 9.57266 40.7542 9.90991 40.7542 10.3751C40.7542 10.8405 40.8165 11.1785 40.9414 11.3895C41.0661 11.6001 41.253 11.7056 41.5025 11.7056C41.7589 11.7056 41.9487 11.601 42.0713 11.392C42.1943 11.1832 42.2557 10.844 42.2557 10.3753C42.2557 9.90614 42.1934 9.56828 42.069 9.36099C41.9441 9.15385 41.7555 9.05012 41.5025 9.05012C41.2493 9.05012 41.0615 9.15475 40.9386 9.36355ZM42.7341 8.91384C43.0281 9.25923 43.1751 9.74648 43.1751 10.3753C43.1751 10.786 43.1081 11.1404 42.9745 11.4385C42.8411 11.7365 42.6487 11.9646 42.3974 12.1229C42.1462 12.2807 41.8478 12.3599 41.5025 12.3599C41.1569 12.3599 40.8594 12.2815 40.6101 12.1253C40.3604 11.9693 40.1691 11.743 40.0354 11.4466C39.9021 11.1504 39.8352 10.7931 39.8352 10.3753C39.8352 9.96795 39.9021 9.61547 40.0355 9.31727C40.1691 9.01922 40.3606 8.79112 40.6101 8.63282C40.8594 8.47513 41.1569 8.39583 41.5025 8.39583C42.0295 8.39583 42.4403 8.5683 42.7341 8.91384ZM45.6891 11.5119C45.8084 11.441 45.868 11.3094 45.868 11.1164C45.868 10.7676 45.6542 10.5933 45.2268 10.5933H44.842V11.6183H45.1628C45.3943 11.6183 45.5695 11.5827 45.6891 11.5119ZM44.8422 9.12098V9.99885H45.1681C45.5388 9.99885 45.7238 9.84598 45.7238 9.5407C45.7238 9.38813 45.674 9.27988 45.5743 9.21611C45.4745 9.15279 45.3161 9.12098 45.0987 9.12098H44.8422ZM46.5389 10.544C46.694 10.6822 46.7713 10.8895 46.7713 11.1656C46.7713 11.5692 46.6298 11.8535 46.3465 12.0189C46.0633 12.1843 45.6669 12.2669 45.1575 12.2669H43.9659V8.48855H45.0134C45.5333 8.48855 45.9306 8.56408 46.2048 8.71469C46.4792 8.86545 46.6162 9.11209 46.6162 9.45341C46.6162 9.67532 46.5515 9.85443 46.4214 9.99056C46.2911 10.127 46.1304 10.2187 45.9379 10.2661C46.1834 10.3132 46.3838 10.4058 46.5389 10.544ZM49.8011 8.48855L49.7103 9.12626H48.4063V10.0317H49.5445V10.6586H48.4063V11.6239H49.8011V12.2673H47.5301V8.48839L49.8011 8.48855ZM53.221 8.48855V12.2673H52.3449V10.8714C52.2201 10.9694 52.0925 11.0421 51.9625 11.0893C51.8325 11.1368 51.6855 11.1605 51.5218 11.1605C51.1619 11.1605 50.8806 11.0441 50.6774 10.8113C50.4744 10.5788 50.3729 10.2625 50.3729 9.86257V8.48855H51.2387V9.85171C51.2387 10.0735 51.2811 10.2361 51.3668 10.3397C51.4525 10.4433 51.5876 10.495 51.773 10.495C52.0082 10.495 52.1986 10.4241 52.3447 10.2826V8.48855H53.221ZM56.454 8.48855L56.3632 9.12626H55.0592V10.0317H56.1974V10.6586H55.0592V11.6239H56.4539V12.2673H54.183V8.48839L56.454 8.48855ZM59.3902 8.4994C59.57 8.56845 59.7401 8.67202 59.9007 8.81027L59.4839 9.31742C59.3731 9.22998 59.2645 9.1644 59.1578 9.12113C59.049 9.07711 58.9329 9.05484 58.8159 9.05555C58.5662 9.05555 58.3694 9.16289 58.2254 9.37727C58.081 9.59195 58.0088 9.92242 58.0088 10.3697C58.0088 10.8096 58.081 11.1357 58.2254 11.3483C58.3694 11.5612 58.5701 11.6672 58.8263 11.6672C58.9617 11.6672 59.0848 11.6411 59.1952 11.5883C59.3055 11.5355 59.4251 11.4602 59.5532 11.3622L59.9432 11.8745C59.8043 12.0165 59.6361 12.1329 59.4382 12.2236C59.2407 12.3145 59.0223 12.36 58.7837 12.36C58.4415 12.36 58.1443 12.2836 57.8913 12.1309C57.6384 11.978 57.4414 11.7517 57.3008 11.4519C57.1601 11.1519 57.0898 10.7912 57.0898 10.3697C57.0898 9.9589 57.1619 9.60447 57.3062 9.30642C57.4503 9.00836 57.6497 8.78223 57.9046 8.6274C58.1593 8.47317 58.4489 8.39583 58.7731 8.39583C59.0046 8.39583 59.2101 8.4305 59.3902 8.4994ZM63.5129 8.48855L62.5991 10.2006L63.6144 12.2673H62.6578L61.8617 10.6259H61.477V12.2673H60.6004V8.48839H61.477V9.97172H61.8831L62.6526 8.48825L63.5129 8.48855ZM65.1293 9.36355C65.0062 9.57266 64.9446 9.90991 64.9446 10.3751C64.9446 10.8405 65.0071 11.1785 65.1319 11.3895C65.2566 11.6001 65.4435 11.7056 65.6931 11.7056C65.9494 11.7056 66.1393 11.601 66.2619 11.392C66.3848 11.1832 66.4463 10.844 66.4463 10.3753C66.4463 9.90614 66.3839 9.56828 66.2595 9.36099C66.1347 9.15385 65.946 9.05012 65.6931 9.05012C65.4398 9.05012 65.2522 9.15475 65.1293 9.36355ZM66.9247 8.91384C67.2187 9.25923 67.3657 9.74648 67.3657 10.3753C67.3657 10.786 67.2986 11.1404 67.1651 11.4385C67.0317 11.7365 66.8393 11.9646 66.588 12.1229C66.3368 12.2807 66.0384 12.3599 65.6931 12.3599C65.3475 12.3599 65.0499 12.2815 64.8007 12.1253C64.551 11.9693 64.3597 11.743 64.226 11.4466C64.0927 11.1504 64.0258 10.7931 64.0258 10.3753C64.0258 9.96795 64.0927 9.61547 64.2261 9.31727C64.3597 9.01922 64.5511 8.79112 64.8007 8.63282C65.0499 8.47513 65.3475 8.39583 65.6931 8.39583C66.2201 8.39583 66.6308 8.5683 66.9247 8.91384ZM70.529 8.48855L70.4326 9.19199H69.0326V12.2673H68.1565V8.48839L70.529 8.48855ZM72.0812 9.36355C71.9583 9.57266 71.8968 9.90991 71.8968 10.3751C71.8968 10.8405 71.9592 11.1785 72.084 11.3895C72.2087 11.6001 72.3958 11.7056 72.6451 11.7056C72.9015 11.7056 73.0913 11.601 73.214 11.392C73.337 11.1832 73.3985 10.844 73.3985 10.3753C73.3985 9.90614 73.336 9.56828 73.2116 9.36099C73.0868 9.15385 72.8981 9.05012 72.6451 9.05012C72.3919 9.05012 72.2041 9.15475 72.0812 9.36355ZM73.8768 8.91384C74.1708 9.25923 74.3178 9.74648 74.3178 10.3753C74.3178 10.786 74.2509 11.1404 74.1171 11.4385C73.9839 11.7365 73.7915 11.9646 73.5401 12.1229C73.2889 12.2807 72.9904 12.3599 72.6451 12.3599C72.2996 12.3599 72.002 12.2815 71.7528 12.1253C71.5032 11.9693 71.3117 11.743 71.178 11.4466C71.0448 11.1504 70.9778 10.7931 70.9778 10.3753C70.9778 9.96795 71.0448 9.61547 71.1782 9.31727C71.3117 9.01922 71.5032 8.79112 71.7529 8.63282C72.002 8.47513 72.2996 8.39583 72.6453 8.39583C73.1722 8.39583 73.5829 8.5683 73.8768 8.91384ZM32.4985 15.0871L31.5847 16.799L32.6002 18.8659H31.6435L30.8475 17.2245H30.4627V18.8659H29.5861V15.0871H30.4627V16.5703H30.8689L31.6383 15.0871H32.4985ZM34.0109 17.4043H34.791L34.4008 15.736L34.0109 17.4043ZM35.1329 18.8658L34.9405 18.0535H33.8612L33.6741 18.8658H32.7658L33.8823 15.087H34.9457L36.0626 18.8658H35.1329ZM39.4559 15.0871V18.8659H38.5798V15.7738H37.4788V18.8659H36.6026V15.0871H39.4559ZM43.2712 18.8658H42.4109V17.4533C42.4109 16.9338 42.4519 16.4376 42.5338 15.9652L41.4704 18.8658H40.4177V15.087H41.2781V16.5266C41.2781 16.8283 41.2674 17.0791 41.246 17.2789C41.22 17.5124 41.1879 17.7451 41.1497 17.9769L42.2344 15.0868H43.2712V18.8658ZM46.7607 15.0871L46.6754 15.774H45.7615V18.8659H44.885V15.7738H43.9287V15.0871H46.7607ZM48.2089 17.4043H48.989L48.5989 15.736L48.2089 17.4043ZM49.331 18.8658L49.1386 18.0535H48.0594L47.8722 18.8658H46.9638L48.0805 15.087H49.1438L50.2608 18.8658H49.331ZM53.6112 15.0871V18.8659H52.7351V15.7627H51.9653L51.8265 17.0444C51.7767 17.477 51.7133 17.8186 51.6369 18.0692C51.5601 18.3202 51.4469 18.5165 51.2974 18.6583C51.1479 18.8 50.9395 18.8998 50.6723 18.9583L50.4636 18.331C50.5922 18.2802 50.6882 18.2094 50.7523 18.1185C50.8166 18.0277 50.8646 17.905 50.8967 17.7503C50.9289 17.5958 50.9644 17.3463 51.0035 17.0007L51.2281 15.0868L53.6112 15.0871ZM55.396 17.4043H56.1763L55.7861 15.736L55.396 17.4043ZM56.5182 18.8658L56.3258 18.0535H55.2462L55.0595 18.8658H54.1511L55.2676 15.087H56.3311L57.4481 18.8658H56.5182Z" fill="black"/>
</svg>
