<svg width="80" height="19" viewBox="0 0 80 19" fill="none" xmlns="http://www.w3.org/2000/svg">
<g clip-path="url(#clip0_1_409)">
<path d="M33.6797 6.30597V2.10217H34.4984L35.6838 4.79795H35.9388L37.1243 2.10217H37.9431V6.30597H37.4345V2.64291H37.424L36.2714 5.28476H35.3394L34.1942 2.64291H34.1822V6.30597H33.6797Z" fill="#333333"/>
<path d="M39.2816 5.90527C39.1227 5.76778 38.9976 5.60356 38.9142 5.42266C38.8307 5.24173 38.7905 5.04793 38.7962 4.85304C38.7951 4.65819 38.8383 4.46512 38.9233 4.28479C39.0082 4.10449 39.1329 3.9405 39.2907 3.80214C39.4484 3.66383 39.6357 3.55388 39.8424 3.47859C40.0486 3.40331 40.2704 3.36415 40.4941 3.36336C40.7182 3.36257 40.94 3.40016 41.1474 3.47399C41.3545 3.54783 41.5429 3.65645 41.7018 3.79365C41.861 3.93087 41.9873 4.09399 42.0737 4.27368C42.1602 4.4534 42.2053 4.64617 42.2061 4.84098C42.1977 5.13162 42.0927 5.41383 41.9035 5.6535C41.7143 5.89317 41.4496 6.07999 41.141 6.19135C40.8324 6.30271 40.4934 6.3338 40.165 6.28091C39.8363 6.22798 39.5326 6.09333 39.2903 5.89325L39.2816 5.90527ZM39.6532 4.0894C39.5428 4.18916 39.4567 4.30697 39.3995 4.43603C39.3422 4.56506 39.3149 4.70274 39.3195 4.84098C39.3157 4.97919 39.343 5.11671 39.4002 5.24567C39.4575 5.37462 39.5432 5.49251 39.6532 5.59261C39.8803 5.78162 40.1825 5.88707 40.4968 5.88707C40.8111 5.88707 41.1133 5.78162 41.3408 5.59261C41.4512 5.49296 41.5372 5.37515 41.5945 5.24609C41.6517 5.11702 41.679 4.9793 41.6741 4.84098C41.6794 4.70282 41.6525 4.5651 41.5956 4.436C41.5387 4.30693 41.4527 4.18908 41.3423 4.0894C41.1167 3.89796 40.8138 3.79081 40.4987 3.79081C40.1832 3.79081 39.8807 3.89796 39.6547 4.0894H39.6532Z" fill="#333333"/>
<path d="M43.0653 5.89215C42.9212 5.75189 42.8086 5.58571 42.7343 5.40355C42.6603 5.22144 42.6258 5.02712 42.6338 4.83223C42.6281 4.63912 42.6634 4.44688 42.7381 4.26689C42.8127 4.0869 42.925 3.92279 43.0683 3.78427C43.2181 3.64433 43.3967 3.53484 43.5935 3.4626C43.7899 3.39036 44.0003 3.35692 44.2111 3.36436C44.4223 3.3718 44.6293 3.41997 44.8197 3.50586C45.01 3.59175 45.1795 3.71353 45.3175 3.86361C45.4411 4.00974 45.5336 4.17699 45.5898 4.35614H45.112C45.0646 4.25108 44.9971 4.15511 44.913 4.07321C44.8132 3.97815 44.6938 3.90372 44.5618 3.85473C44.4299 3.80575 44.2885 3.78328 44.1467 3.78876C44.009 3.78603 43.8721 3.81136 43.7455 3.86304C43.6192 3.91476 43.5059 3.99154 43.4141 4.08819C43.2143 4.28979 43.1055 4.55665 43.1115 4.83223C43.1028 5.10955 43.2116 5.37876 43.4141 5.58078C43.5055 5.67572 43.617 5.75148 43.7417 5.80308C43.8661 5.85469 44.0011 5.88096 44.1372 5.8802C44.2862 5.88711 44.4348 5.86273 44.5728 5.80888C44.7105 5.755 44.8337 5.67299 44.9334 5.5688C45.0233 5.47886 45.0931 5.37299 45.1389 5.25739H45.6167C45.5344 5.56417 45.3429 5.83527 45.0741 6.02584C44.8053 6.21641 44.4754 6.31503 44.1387 6.30536C43.9393 6.3106 43.7406 6.27655 43.5555 6.20538C43.3705 6.13425 43.2037 6.02755 43.0653 5.89215Z" fill="#333333"/>
<path d="M46.0433 6.30445V3.36335H46.568V4.54042H47.2308L48.291 3.36335H48.9276L47.7032 4.7454L49.0273 6.29824H48.3645L47.2361 4.98298H46.5733V6.30601L46.0433 6.30445Z" fill="#333333"/>
<path d="M49.4523 5.89897C49.3132 5.7638 49.204 5.60235 49.1308 5.42456C49.058 5.24673 49.0231 5.05631 49.028 4.86487C49.022 4.66994 49.0557 4.47581 49.1278 4.29392C49.1998 4.11204 49.3086 3.94615 49.4478 3.80609C49.5869 3.66601 49.7534 3.55465 49.9377 3.47859C50.1216 3.40254 50.3195 3.36335 50.5197 3.36335C50.7195 3.36335 50.9174 3.40254 51.1017 3.47859C51.2856 3.55465 51.4524 3.66601 51.5912 3.80609C51.7304 3.94615 51.8392 4.11204 51.9116 4.29392C51.9836 4.47581 52.0174 4.66994 52.0109 4.86487C52.0037 5.15076 51.9116 5.42847 51.7459 5.66431C51.5798 5.90015 51.3474 6.08397 51.0767 6.19343C50.8056 6.30294 50.5079 6.33338 50.2198 6.28114C49.9312 6.22885 49.6647 6.0961 49.4523 5.89897ZM49.7796 4.11439C49.6829 4.21221 49.607 4.32797 49.5566 4.45484C49.5066 4.58171 49.483 4.71711 49.4872 4.85304C49.483 4.98894 49.5069 5.1243 49.557 5.25113C49.607 5.37796 49.6829 5.49376 49.7796 5.5917C49.979 5.77745 50.244 5.88111 50.5197 5.88111C50.7953 5.88111 51.0604 5.77745 51.2594 5.5917C51.3557 5.49334 51.4308 5.37747 51.4812 5.25075C51.5313 5.12399 51.5556 4.98886 51.5522 4.85304C51.556 4.71715 51.5321 4.58186 51.482 4.45503C51.432 4.3282 51.3561 4.2124 51.2594 4.11439C51.0615 3.92625 50.7961 3.82095 50.5197 3.82095C50.2433 3.82095 49.9775 3.92625 49.7796 4.11439Z" fill="#333333"/>
<path d="M52.8645 6.30559V3.36476H54.3739C54.6189 3.35202 54.8604 3.4255 55.0522 3.57128C55.1319 3.63663 55.1952 3.71804 55.2377 3.80961C55.2801 3.90118 55.3006 4.00064 55.2979 4.10074C55.2987 4.19136 55.2847 4.28152 55.2559 4.36782C55.2331 4.43622 55.1971 4.49992 55.1501 4.5557C55.1118 4.59866 55.0674 4.63631 55.0181 4.66748C54.9821 4.69186 54.9427 4.71169 54.901 4.72651C54.8801 4.73387 54.8581 4.73857 54.8361 4.74047C54.8611 4.74255 54.8858 4.74779 54.9093 4.75601C54.9601 4.77126 55.0086 4.79264 55.0541 4.81968C55.1152 4.85445 55.1721 4.89502 55.2248 4.94078C55.2854 4.99906 55.3324 5.0689 55.3632 5.14572C55.403 5.24154 55.4231 5.34387 55.4216 5.44697C55.4269 5.56345 55.4049 5.67966 55.3575 5.78708C55.3101 5.8945 55.238 5.99047 55.1467 6.06804C54.9317 6.2359 54.6579 6.32019 54.3804 6.30404L52.8645 6.30559ZM53.3524 4.57121H54.3383C54.6458 4.57121 54.8001 4.44388 54.8001 4.18772C54.8001 3.93152 54.6458 3.80575 54.3383 3.80575H53.3524V4.57121ZM53.3524 5.86462H54.369C54.5172 5.87406 54.664 5.83216 54.7823 5.74662C54.8297 5.70624 54.8668 5.65631 54.8915 5.60042C54.9157 5.54453 54.9267 5.48417 54.9237 5.42365C54.9271 5.36295 54.9161 5.30228 54.8915 5.24612C54.8672 5.18997 54.8297 5.13977 54.7823 5.09916C54.6636 5.01415 54.5169 4.97282 54.369 4.98268H53.3524V5.86462Z" fill="#333333"/>
<path d="M56.2815 5.87638C56.1389 5.7379 56.0271 5.57399 55.9531 5.3943C55.8788 5.21462 55.8436 5.02276 55.8493 4.83006C55.8436 4.63733 55.8785 4.44544 55.9528 4.26571C56.0271 4.08599 56.1389 3.92211 56.2815 3.78372C56.4309 3.64396 56.6091 3.53461 56.8055 3.46247C57.0019 3.39033 57.2116 3.35693 57.422 3.36436C57.6329 3.37179 57.8395 3.41989 58.0295 3.50566C58.2194 3.59143 58.3885 3.71305 58.5266 3.86296C58.6498 4.00856 58.7415 4.17566 58.7965 4.3547H58.3199C58.2733 4.24952 58.2058 4.15367 58.1212 4.07222C58.0223 3.97717 57.9028 3.90274 57.7713 3.85382C57.6397 3.80491 57.4986 3.78255 57.3572 3.78821C57.2196 3.78548 57.0831 3.81079 56.9568 3.86239C56.8305 3.914 56.7179 3.99067 56.6262 4.08716C56.4301 4.29153 56.3259 4.55942 56.3353 4.83454C56.3266 5.11122 56.4347 5.37997 56.6357 5.58191C56.727 5.67667 56.8381 5.75224 56.9625 5.80376C57.0869 5.85529 57.2211 5.88153 57.3572 5.88089C57.5058 5.88786 57.6541 5.8636 57.7917 5.80983C57.929 5.75603 58.0518 5.67409 58.1516 5.56997C58.2422 5.48094 58.3119 5.37504 58.3563 5.25905H58.8329C58.781 5.45072 58.6869 5.62999 58.5565 5.78522C58.4132 5.95323 58.2304 6.08765 58.0226 6.17793C57.8149 6.26821 57.5874 6.31181 57.3587 6.3054C57.157 6.30935 56.9568 6.27321 56.7714 6.19927C56.5856 6.12534 56.4188 6.0153 56.2815 5.87638Z" fill="#333333"/>
<path d="M59.2595 6.30445V3.36335H59.7854V4.54042H60.4482L61.5106 3.36335H62.1419L60.9145 4.7454L62.2435 6.29824H61.5792L60.4535 4.98298H59.7907V6.30601L59.2595 6.30445Z" fill="#333333"/>
<path d="M62.6701 6.30601V3.36335H63.1304V5.62859H63.141L64.7047 3.36335H65.2279V6.30601H64.7676V4.04075H64.7551L63.1933 6.30601H62.6701Z" fill="#333333"/>
<path d="M66.0807 6.30597V3.30258H66.541V5.6146H66.552L68.1149 3.30258H68.6385V6.30597H68.1779V3.99396H68.1657L66.6024 6.30597H66.0807ZM66.4981 2.10217H66.9296C66.9281 2.15154 66.9372 2.20065 66.9562 2.24592C66.9755 2.29119 67.004 2.33147 67.04 2.36382C67.134 2.43558 67.2493 2.47044 67.3657 2.46213C67.484 2.47229 67.6023 2.43732 67.6975 2.36382C67.7331 2.33132 67.7615 2.29097 67.7805 2.24571C67.7994 2.20045 67.8082 2.15141 67.8063 2.10217H68.2423C68.2446 2.20495 68.2241 2.3069 68.1828 2.40049C68.1418 2.49408 68.0808 2.57693 68.0046 2.64291C67.8233 2.79162 67.5951 2.86614 67.3642 2.85223C67.1336 2.86575 66.9061 2.79125 66.7253 2.64291C66.651 2.57579 66.5922 2.49246 66.5527 2.39894C66.5137 2.30543 66.4947 2.20406 66.4981 2.10217Z" fill="#333333"/>
<path d="M33.6797 11.3505V8.40784H34.1406V10.6743H34.1529L35.7153 8.40784H36.2377V11.3505H35.7768V9.08405H35.766L34.2036 11.3505H33.6797Z" fill="#333333"/>
<path d="M37.0903 11.3505V8.40784H37.5523V9.61416H39.1864V8.40784H39.6482V11.3505H39.1864V10.0556H37.5569V11.3505H37.0903Z" fill="#333333"/>
<path d="M40.501 11.3505V8.40784H40.9632V9.61416H42.5966V8.40784H43.0588V11.3505H42.5966V10.0556H40.9632V11.3505H40.501Z" fill="#333333"/>
<path d="M44.3366 10.9435C44.1975 10.8082 44.0883 10.6467 44.0155 10.4689C43.9427 10.2912 43.9074 10.1008 43.9123 9.90938C43.9059 9.71445 43.9396 9.52032 44.012 9.33843C44.0841 9.15655 44.1929 8.99066 44.3321 8.8506C44.4708 8.71053 44.6377 8.59917 44.8216 8.52311C45.0058 8.44705 45.2038 8.40784 45.4036 8.40784C45.6038 8.40784 45.8017 8.44705 45.9856 8.52311C46.1699 8.59917 46.3363 8.71053 46.4755 8.8506C46.6146 8.99066 46.7235 9.15655 46.7955 9.33843C46.8676 9.52032 46.9013 9.71445 46.8952 9.90938C46.888 10.1953 46.7959 10.473 46.6298 10.7088C46.4641 10.9447 46.2317 11.1284 45.9606 11.2379C45.6899 11.3474 45.3922 11.3779 45.1037 11.3256C44.8155 11.2734 44.5489 11.1406 44.3366 10.9435ZM44.6638 9.1589C44.5668 9.25661 44.4909 9.37237 44.4405 9.49928C44.3905 9.62614 44.367 9.76158 44.3711 9.89755C44.367 10.0335 44.3905 10.1689 44.4405 10.2958C44.4909 10.4227 44.5668 10.5384 44.6638 10.6362C44.8618 10.8243 45.1272 10.9296 45.4036 10.9296C45.68 10.9296 45.9458 10.8243 46.1437 10.6362C46.2408 10.5384 46.3166 10.4227 46.3667 10.2958C46.4167 10.1689 46.4406 10.0335 46.4361 9.89755C46.4406 9.76158 46.4171 9.62614 46.3667 9.49928C46.3166 9.37237 46.2408 9.25661 46.1437 9.1589C45.9458 8.97075 45.68 8.86546 45.4036 8.86546C45.1272 8.86546 44.8618 8.97075 44.6638 9.1589Z" fill="#333333"/>
<path d="M47.7484 11.3505V8.40947H49.2612C49.5069 8.39582 49.7492 8.46885 49.9418 8.61457C50.0218 8.67978 50.0855 8.76123 50.128 8.85291C50.1709 8.94455 50.1913 9.04412 50.1883 9.14434C50.1891 9.235 50.175 9.32524 50.1458 9.41157C50.1075 9.53583 50.0226 9.64245 49.9077 9.71142C49.8713 9.7358 49.8319 9.75563 49.7902 9.77045C49.7693 9.77887 49.7473 9.78414 49.725 9.786C49.7504 9.7882 49.7754 9.79286 49.8 9.79999C49.8512 9.81554 49.8997 9.83745 49.9452 9.86525C50.0036 9.89971 50.0582 9.93979 50.1083 9.98487C50.1693 10.0436 50.2167 10.1141 50.2471 10.1915C50.2873 10.2868 50.3074 10.3887 50.3058 10.4914C50.3108 10.6077 50.2888 10.7238 50.2414 10.8312C50.194 10.9386 50.1223 11.0347 50.0317 11.1128C49.8148 11.2801 49.5399 11.3638 49.2612 11.3474L47.7484 11.3505ZM48.2382 9.61511H49.2256C49.5354 9.61511 49.6889 9.48771 49.6889 9.23291C49.6889 8.97811 49.5403 8.85537 49.2301 8.85537H48.2428L48.2382 9.61511ZM48.2382 10.9093H49.2563C49.4049 10.9194 49.5524 10.8774 49.6711 10.7912C49.7159 10.749 49.7515 10.6987 49.7761 10.6432C49.8004 10.5877 49.8129 10.5282 49.8129 10.468C49.8129 10.4079 49.8004 10.3484 49.7761 10.2929C49.7515 10.2374 49.7159 10.1871 49.6711 10.1449C49.5524 10.0587 49.4049 10.0166 49.2563 10.0268H48.2382V10.9093Z" fill="#333333"/>
<path d="M51.1533 10.9314C50.8727 10.6474 50.7222 10.2701 50.7335 9.8814C50.7218 9.49268 50.8727 9.11537 51.1533 8.83137C51.2818 8.69612 51.4392 8.5884 51.6151 8.51545C51.791 8.4425 51.9818 8.40598 52.1736 8.40837C52.3939 8.40231 52.6119 8.44929 52.8076 8.54487C52.957 8.61616 53.087 8.7188 53.1879 8.84487L53.2417 8.92889V8.45789H53.7172V11.2974H53.2417V10.8384L53.1879 10.9179C53.0901 11.0415 52.963 11.1416 52.8171 11.2104C52.6172 11.3085 52.3939 11.3565 52.1691 11.3499C51.978 11.3522 51.7888 11.3161 51.6136 11.244C51.4384 11.1718 51.2818 11.0653 51.1533 10.9314ZM51.5097 9.12238C51.314 9.32725 51.2098 9.59623 51.22 9.87241C51.2102 10.1486 51.314 10.4175 51.5097 10.6224C51.6041 10.7158 51.7175 10.79 51.8426 10.8408C51.9681 10.8916 52.1031 10.9177 52.2396 10.9177C52.3761 10.9177 52.5107 10.8916 52.6362 10.8408C52.7617 10.79 52.8751 10.7158 52.9691 10.6224C53.1651 10.4175 53.269 10.1486 53.2592 9.87241C53.269 9.59623 53.1651 9.32725 52.9691 9.12238C52.8751 9.02903 52.7617 8.95475 52.6362 8.90398C52.5107 8.85325 52.3761 8.82705 52.2396 8.82705C52.1031 8.82705 51.9681 8.85325 51.8426 8.90398C51.7175 8.95475 51.6041 9.02903 51.5097 9.12238Z" fill="#333333"/>
<path d="M54.5696 11.4843V8.40784H55.0538V11.0228H56.6425V8.40784H57.1267V11.0228H57.554V12.1913H57.0702V11.4843H54.5696Z" fill="#333333"/>
<path d="M57.9802 11.3505V8.40784H58.4405V10.6743H58.4515L60.0152 8.40784H60.5384V11.3505H60.0781V9.08405H60.0671L58.5034 11.3505H57.9802Z" fill="#333333"/>
<path d="M61.8158 10.9435C61.677 10.8082 61.5678 10.6467 61.4947 10.4689C61.4219 10.2912 61.387 10.1008 61.3915 9.90938C61.3855 9.71445 61.4192 9.52032 61.4913 9.33843C61.5633 9.15655 61.6721 8.99066 61.8113 8.8506C61.9504 8.71053 62.1169 8.59917 62.3012 8.52311C62.4851 8.44705 62.683 8.40784 62.8832 8.40784C63.083 8.40784 63.2809 8.44705 63.4652 8.52311C63.6491 8.59917 63.8155 8.71053 63.9547 8.8506C64.0938 8.99066 64.2027 9.15655 64.2747 9.33843C64.3471 9.52032 64.3809 9.71445 64.3744 9.90938C64.3672 10.1953 64.2751 10.473 64.1094 10.7088C63.9433 10.9447 63.7109 11.1284 63.4402 11.2379C63.1691 11.3474 62.8714 11.3779 62.5833 11.3256C62.2947 11.2734 62.0282 11.1406 61.8158 10.9435ZM62.143 9.1589C62.046 9.25661 61.9701 9.37237 61.9201 9.49928C61.8697 9.62614 61.8462 9.76158 61.8507 9.89755C61.8462 10.0335 61.87 10.1689 61.9201 10.2958C61.9701 10.4227 62.046 10.5384 62.143 10.6362C62.341 10.8243 62.6068 10.9296 62.8832 10.9296C63.1596 10.9296 63.425 10.8243 63.6229 10.6362C63.72 10.5384 63.7958 10.4227 63.8459 10.2958C63.8963 10.1689 63.9198 10.0335 63.9153 9.89755C63.9198 9.76158 63.8963 9.62614 63.8463 9.49928C63.7958 9.37237 63.72 9.25661 63.6229 9.1589C63.425 8.97075 63.1596 8.86546 62.8832 8.86546C62.6068 8.86546 62.341 8.97075 62.143 9.1589Z" fill="#333333"/>
<path d="M65.2279 11.3505V8.40784H65.6898V9.61416H67.324V8.40784H67.7858V11.3505H67.324V10.0556H65.6943V11.3505H65.2279Z" fill="#333333"/>
<path d="M68.6385 11.3505V8.40784H69.1008V9.61416H70.7342V8.40784H71.1964V11.3505H70.7342V10.0556H69.1008V11.3505H68.6385Z" fill="#333333"/>
<path d="M72.0491 11.3495V8.40784H72.5557V9.40706H73.322C73.6424 9.39478 73.9552 9.49476 74.1986 9.68677C74.3052 9.77326 74.3905 9.87966 74.4493 9.99887C74.5077 10.1181 74.538 10.2474 74.538 10.3783C74.538 10.5091 74.5077 10.6384 74.4493 10.7577C74.3905 10.8769 74.3052 10.9833 74.1986 11.0698C73.9552 11.2618 73.6424 11.3618 73.322 11.3495H72.0491ZM72.5557 10.9082H73.322C73.5089 10.9192 73.6932 10.8667 73.8407 10.7606C73.8991 10.7125 73.9457 10.6535 73.9776 10.5877C74.0098 10.5218 74.0261 10.4505 74.0261 10.3783C74.0261 10.3061 74.0098 10.2348 73.9776 10.1689C73.9457 10.103 73.8991 10.0441 73.8407 9.99602C73.694 9.88788 73.5097 9.83264 73.322 9.8406H72.5557V10.9082ZM74.9532 11.3495V8.40784H75.4598V11.3495H74.9532Z" fill="#333333"/>
<path d="M76.3125 11.3506V8.34877H76.7728V10.6608H76.7834L78.3471 8.34877H78.8704V11.3506H78.41V9.03855H78.3975L76.8342 11.3506H76.3125ZM76.7311 7.14677H77.1671C77.1652 7.19618 77.1743 7.24536 77.1933 7.29067C77.2126 7.33598 77.2411 7.37621 77.2775 7.40844C77.3742 7.47365 77.4872 7.50838 77.6028 7.50838C77.7184 7.50838 77.8314 7.47365 77.9281 7.40844C77.9645 7.37621 77.9933 7.33598 78.0123 7.29067C78.0316 7.24536 78.0404 7.19618 78.0385 7.14677H78.4745C78.4783 7.25025 78.4593 7.35331 78.4188 7.44806C78.3782 7.54285 78.3175 7.62687 78.2413 7.69387C78.0544 7.83098 77.8311 7.90465 77.602 7.90465C77.373 7.90465 77.1497 7.83098 76.9631 7.69387C76.8869 7.62665 76.8266 7.54251 76.7865 7.44779C76.7463 7.35304 76.7273 7.25013 76.7311 7.14677Z" fill="#333333"/>
<path d="M33.6797 16.3951V13.4525H34.1309V14.6302H34.7008L35.6121 13.4525H36.152L35.0993 14.8352L36.2377 16.3889H35.6722L34.7038 15.0652H34.1338V16.3889L33.6797 16.3951Z" fill="#333333"/>
<path d="M36.2377 16.3951L37.0881 13.4525H38.3716L39.222 16.3951H38.6988L37.9992 13.8937H37.4522L36.7543 16.3951H36.2377Z" fill="#333333"/>
<path d="M40.0653 15.9721C39.7965 15.6817 39.6482 15.3092 39.6482 14.9237C39.6482 14.5381 39.7965 14.1656 40.0653 13.8752C40.1938 13.7402 40.3512 13.6327 40.5275 13.5598C40.7034 13.487 40.8938 13.4505 41.0864 13.4528C41.3067 13.4476 41.5251 13.4944 41.7211 13.5892C41.8698 13.6617 41.9998 13.764 42.1022 13.8887L42.1564 13.9741V13.5023H42.6326V16.3391H42.1564V15.8898L42.1022 15.9691C42.0059 16.0898 41.8815 16.1881 41.7386 16.2567C41.538 16.3538 41.3147 16.4012 41.0894 16.3945C40.8964 16.3973 40.7053 16.361 40.5286 16.2881C40.352 16.2153 40.1942 16.1075 40.0653 15.9721ZM40.4164 14.1658C40.2287 14.3776 40.126 14.6447 40.126 14.9207C40.126 15.1966 40.2287 15.4638 40.4164 15.6756C40.5108 15.7683 40.6242 15.8422 40.7497 15.8926C40.8752 15.943 41.0102 15.969 41.1467 15.969C41.2828 15.969 41.4178 15.943 41.5433 15.8926C41.6688 15.8422 41.7822 15.7683 41.877 15.6756C42.0654 15.4643 42.1693 15.1969 42.1693 14.9207C42.1693 14.6444 42.0654 14.377 41.877 14.1658C41.7826 14.0726 41.6692 13.9985 41.5437 13.9478C41.4182 13.8972 41.2832 13.871 41.1467 13.871C41.0102 13.871 40.8748 13.8972 40.7493 13.9478C40.6238 13.9985 40.5104 14.0726 40.4164 14.1658Z" fill="#333333"/>
<path d="M43.9207 15.975C43.6405 15.6877 43.4854 15.3127 43.4854 14.9237C43.4854 14.5346 43.6405 14.1596 43.9207 13.8723C44.0704 13.7327 44.249 13.6235 44.4458 13.5515C44.6426 13.4794 44.853 13.4461 45.0642 13.4535C45.2754 13.4609 45.4828 13.5089 45.6732 13.5946C45.8635 13.6803 46.0334 13.8018 46.1714 13.9515C46.2958 14.0969 46.3887 14.2638 46.444 14.4428H45.9659C45.9177 14.3355 45.8487 14.2377 45.7619 14.1546C45.6622 14.0598 45.5424 13.9855 45.4104 13.9367C45.2785 13.8878 45.1367 13.8654 44.9949 13.8708C44.8568 13.8681 44.72 13.8934 44.5933 13.945C44.4667 13.9965 44.3537 14.0731 44.2615 14.1695C44.064 14.3731 43.9586 14.641 43.9684 14.9162C43.9597 15.1928 44.0689 15.4614 44.2714 15.6629C44.3628 15.7576 44.4743 15.8332 44.599 15.8846C44.7237 15.9361 44.8587 15.9623 44.9949 15.9616C45.1442 15.9684 45.2929 15.9441 45.4309 15.8904C45.5689 15.8367 45.6921 15.7549 45.7919 15.6509C45.8794 15.5641 45.9473 15.4614 45.9913 15.3493H46.4694C46.4175 15.5408 46.3231 15.7198 46.1923 15.8749C46.0489 16.0422 45.8662 16.1761 45.6588 16.2663C45.451 16.3564 45.2239 16.4003 44.9949 16.3946C44.7947 16.3989 44.5952 16.3637 44.4102 16.2915C44.2251 16.2192 44.0583 16.1114 43.9207 15.975Z" fill="#333333"/>
<path d="M46.4694 13.8937V13.4525H49.0273V13.8937H47.9865V16.3951H47.5152V13.8937H46.4694Z" fill="#333333"/>
<path d="M49.88 15.975C49.6059 15.6891 49.4538 15.3136 49.4538 14.9238C49.4538 14.534 49.6059 14.1585 49.88 13.8725C50.0181 13.7354 50.1838 13.6273 50.3673 13.5551C50.5504 13.4828 50.7472 13.4481 50.9447 13.4529C51.1427 13.4486 51.3391 13.4831 51.523 13.5545C51.7065 13.6258 51.8729 13.7324 52.0125 13.8679C52.152 14.0034 52.2616 14.1648 52.3348 14.3425C52.4079 14.5201 52.4428 14.7103 52.4375 14.9014V15.0656H49.9236C49.9472 15.3147 50.0662 15.5463 50.2573 15.7152C50.4439 15.8836 50.6911 15.9748 50.9463 15.9691C51.2181 15.9755 51.4824 15.8851 51.6898 15.7152C51.7797 15.645 51.8555 15.5588 51.9124 15.4613H52.3757C52.2673 15.7415 52.0712 15.982 51.8149 16.1493C51.5582 16.3166 51.2541 16.4023 50.9447 16.3947C50.7472 16.3996 50.5504 16.3648 50.3669 16.2926C50.1837 16.2204 50.0181 16.1122 49.88 15.975ZM49.9327 14.6699H51.9416C51.9093 14.4513 51.796 14.2514 51.6231 14.1069C51.4365 13.9513 51.1961 13.8692 50.9497 13.877C50.7017 13.8703 50.4602 13.9522 50.271 14.1069C50.092 14.2492 49.9718 14.449 49.9327 14.6699Z" fill="#333333"/>
<path d="M53.2906 17.6563V13.5181H53.7657V13.9932L53.826 13.9029C53.9227 13.7751 54.0478 13.6716 54.1915 13.6005C54.3914 13.4965 54.6143 13.4458 54.8391 13.4531C55.0314 13.4508 55.2217 13.4894 55.3973 13.5664C55.5732 13.6434 55.7306 13.7571 55.8591 13.8998C56.1272 14.2068 56.2751 14.6007 56.2751 15.0083C56.2751 15.416 56.1272 15.8099 55.8591 16.1169C55.6487 16.3383 55.3734 16.4869 55.0731 16.541C54.7728 16.5951 54.4626 16.552 54.1885 16.4178C54.0429 16.348 53.9182 16.2416 53.826 16.109L53.7657 16.0251V17.6563H53.2906ZM54.0619 14.2197C53.8738 14.443 53.7703 14.7257 53.7703 15.0179C53.7703 15.31 53.8738 15.5927 54.0619 15.816C54.1563 15.9141 54.2693 15.9922 54.3944 16.0455C54.5195 16.0988 54.6541 16.1263 54.7902 16.1263C54.9264 16.1263 55.061 16.0988 55.1861 16.0455C55.3112 15.9922 55.4242 15.9141 55.5186 15.816C55.7067 15.5927 55.8102 15.31 55.8102 15.0179C55.8102 14.7257 55.7067 14.443 55.5186 14.2197C55.4246 14.1212 55.3116 14.0428 55.1865 13.9892C55.0613 13.9356 54.9264 13.908 54.7902 13.908C54.6541 13.908 54.5191 13.9356 54.394 13.9892C54.2689 14.0428 54.1559 14.1212 54.0619 14.2197Z" fill="#333333"/>
<path d="M29.604 0.00610352H22.5288V18.2966H29.604V0.00610352Z" fill="#333333"/>
<path d="M18.3387 0.00610352H11.2635V16.6516H18.3387V0.00610352Z" fill="#333333"/>
<path d="M0 18.5905V11.429C2.98879 11.4252 5.85392 10.2194 7.96599 8.07648C10.0781 5.93354 11.2644 3.02868 11.2644 0H18.3396C18.3359 4.92829 16.4027 9.65374 12.9643 13.1391C9.52596 16.6245 4.86338 18.5851 0 18.5905Z" fill="url(#paint0_linear_1_409)"/>
<path d="M11.2635 18.5904V11.4289C14.2526 11.4256 17.1182 10.2201 19.2307 8.07708C21.3433 5.93406 22.5299 3.02892 22.5299 -0.00012207H29.6051C29.6008 4.92836 27.6672 9.65376 24.2285 13.1391C20.7898 16.6245 16.127 18.585 11.2635 18.5904Z" fill="url(#paint1_linear_1_409)"/>
</g>
<defs>
<linearGradient id="paint0_linear_1_409" x1="2.21139" y1="16.6986" x2="18.1475" y2="0.650032" gradientUnits="userSpaceOnUse">
<stop stop-color="#00EF12"/>
<stop offset="1" stop-color="#00FFE9"/>
</linearGradient>
<linearGradient id="paint1_linear_1_409" x1="735.942" y1="2040.86" x2="2187.57" y2="579.321" gradientUnits="userSpaceOnUse">
<stop stop-color="#00EF12"/>
<stop offset="1" stop-color="#00FFE9"/>
</linearGradient>
<clipPath id="clip0_1_409">
<rect width="79.2458" height="18.9583" fill="white"/>
</clipPath>
</defs>
</svg>
