<svg width="106" height="19" viewBox="0 0 106 19" fill="none" xmlns="http://www.w3.org/2000/svg">
<path d="M17.775 2.34625C17.1409 2.34625 16.5068 2.43004 15.9136 2.59763V5.38376C16.4864 5.11143 17.1 4.96482 17.775 4.96482C19.7796 4.96482 21.4568 6.32645 22.0091 8.19086H15.9136V10.8094H24.6068C24.6887 10.3695 24.7296 9.9296 24.7296 9.48968C24.7296 5.53041 21.6205 2.34625 17.775 2.34625Z" fill="#C00D0D"/>
<path d="M17.775 13.9935C17.1205 13.9935 16.4864 13.8469 15.9136 13.5746V16.3607C16.5068 16.5283 17.1205 16.6121 17.775 16.6121C20.7 16.6121 23.2159 14.7477 24.2387 12.1291H21.3341C20.5364 13.2603 19.2273 13.9935 17.775 13.9935Z" fill="#C00D0D"/>
<path d="M6.68864 5.88666L3.35455 2.36733H0L6.68864 9.46887L10.8 5.06968V9.84593C10.8205 10.3696 10.9023 10.8724 11.0455 11.3542C11.4341 12.7996 12.2523 14.0566 13.3568 14.9783V2.36733H10.0023L6.68864 5.88666Z" fill="#C00D0D"/>
<path d="M33.1555 9.28021V3.10043H34.5464L36.5919 5.67711L38.535 3.10043H39.8851V9.28021H38.3509V5.50951L36.5714 7.81384H36.5305L34.6896 5.50951V9.28021H33.1555Z" fill="black"/>
<path d="M42.3396 8.50506C41.726 7.89755 41.4396 7.12245 41.4396 6.1798C41.4396 5.2371 41.7464 4.462 42.3396 3.85451C42.9532 3.24701 43.7305 2.93278 44.7123 2.93278C45.6942 2.93278 46.4918 3.24701 47.0849 3.85451C47.6988 4.462 47.9853 5.2371 47.9853 6.1798C47.9853 7.12245 47.6781 7.89755 47.0849 8.50506C46.4715 9.11258 45.6942 9.42678 44.7123 9.42678C43.7305 9.42678 42.9532 9.11258 42.3396 8.50506ZM43.076 6.1798C43.076 6.70351 43.2396 7.12245 43.5464 7.45763C43.8533 7.79282 44.2419 7.96041 44.7123 7.96041C45.2033 7.96041 45.5919 7.79282 45.8986 7.47857C46.2057 7.14343 46.3692 6.72445 46.3692 6.20074C46.3692 5.69796 46.2057 5.25804 45.8986 4.94384C45.5919 4.60865 45.1828 4.44106 44.7123 4.44106C44.2419 4.44106 43.8533 4.60865 43.5464 4.9229C43.2396 5.2371 43.076 5.65608 43.076 6.1798Z" fill="black"/>
<path d="M54.1214 7.20625L54.8372 8.35841C54.592 8.71453 54.244 8.96592 53.835 9.15445C53.4057 9.34298 52.9553 9.42678 52.4443 9.42678C51.4622 9.42678 50.6647 9.13351 50.0715 8.526C49.4783 7.93947 49.1712 7.14343 49.1712 6.1798C49.1712 5.25804 49.4577 4.50392 50.0509 3.87546C50.6441 3.24701 51.3805 2.93278 52.301 2.93278C53.3644 2.93278 54.1825 3.20511 54.7349 3.77072L54.0191 5.02763C53.61 4.62959 53.1192 4.42012 52.526 4.42012C52.076 4.42012 51.6872 4.58772 51.3598 4.90192C51.0329 5.2371 50.8488 5.65608 50.8488 6.1798C50.8488 6.70351 51.0123 7.14343 51.3598 7.45763C51.7078 7.79282 52.1169 7.93947 52.5871 7.93947C53.16 7.96041 53.6715 7.70902 54.1214 7.20625Z" fill="black"/>
<path d="M56.2894 9.28021V3.10043H57.8238V9.28021H56.2894ZM61.9963 3.10043L59.6851 6.03323L62.2828 9.28021H60.2783L57.8849 6.1589L60.0533 3.10043H61.9963Z" fill="black"/>
<path d="M63.5509 8.50506C62.9375 7.89755 62.651 7.12245 62.651 6.1798C62.651 5.2371 62.9577 4.462 63.5509 3.85451C64.1647 3.24701 64.942 2.93278 65.9237 2.93278C66.9057 2.93278 67.7032 3.24701 68.2964 3.85451C68.9102 4.462 69.1963 5.2371 69.1963 6.1798C69.1963 7.12245 68.8896 7.89755 68.2964 8.50506C67.683 9.11258 66.9057 9.42678 65.9237 9.42678C64.9623 9.42678 64.1647 9.11258 63.5509 8.50506ZM64.308 6.1798C64.308 6.70351 64.4715 7.12245 64.7782 7.45763C65.0853 7.79282 65.4737 7.96041 65.9443 7.96041C66.4351 7.96041 66.8236 7.79282 67.1307 7.47857C67.4374 7.14343 67.6009 6.72445 67.6009 6.20074C67.6009 5.69796 67.4374 5.25804 67.1307 4.94384C66.8236 4.60865 66.4145 4.44106 65.9443 4.44106C65.4737 4.44106 65.0853 4.60865 64.7782 4.9229C64.4715 5.2371 64.308 5.65608 64.308 6.1798Z" fill="black"/>
<path d="M70.7715 9.28004V3.10025C70.8739 3.10025 71.0782 3.10025 71.3647 3.0793C71.6512 3.05835 71.9579 3.05835 72.2646 3.0374C72.5713 3.0374 72.8578 3.01645 73.1443 3.01645C74.9647 3.01645 75.8852 3.56111 75.8852 4.62947C75.8852 4.98559 75.7829 5.29984 75.5579 5.55122C75.3329 5.80261 75.0671 5.94922 74.76 6.01208V6.03302C75.6194 6.24253 76.0487 6.72433 76.0487 7.45751C76.0487 8.69347 75.0873 9.32192 73.1852 9.32192C72.9193 9.32192 72.4896 9.30098 71.917 9.28004C71.3239 9.28004 70.935 9.28004 70.7715 9.28004ZM73.2875 4.29432C72.8578 4.29432 72.5304 4.29432 72.3261 4.31526V5.6769H73.3284C73.5942 5.6769 73.8192 5.61404 73.9827 5.48837C74.1668 5.36269 74.2489 5.1951 74.2489 4.96465C74.2489 4.52473 73.9216 4.29432 73.2875 4.29432ZM73.2875 6.64053H72.3261V8.02314C72.9395 8.06502 73.2669 8.08596 73.3486 8.08596C73.6966 8.08596 73.9624 8.02314 74.1465 7.89743C74.3307 7.77175 74.433 7.60416 74.433 7.37371C74.4124 6.89192 74.0442 6.64053 73.2875 6.64053Z" fill="black"/>
<path d="M82.2873 7.20625L83.0035 8.35841C82.7579 8.71453 82.4103 8.96592 82.0012 9.15445C81.5715 9.34298 81.1215 9.42678 80.6101 9.42678C79.6285 9.42678 78.8305 9.13351 78.2373 8.526C77.6442 7.93947 77.3374 7.14343 77.3374 6.1798C77.3374 5.25804 77.6239 4.50392 78.2171 3.87546C78.8103 3.24701 79.5463 2.93278 80.4669 2.93278C81.5306 2.93278 82.3488 3.20511 82.9011 3.77072L82.1853 5.02763C81.7762 4.62959 81.285 4.42012 80.6918 4.42012C80.2419 4.42012 79.8534 4.58772 79.5261 4.90192C79.1987 5.2371 79.0146 5.65608 79.0146 6.1798C79.0146 6.70351 79.1781 7.14343 79.5261 7.45763C79.8737 7.79282 80.2827 7.93947 80.7533 7.93947C81.3056 7.96041 81.8373 7.70902 82.2873 7.20625Z" fill="black"/>
<path d="M84.435 9.28021V3.10043H85.9694V9.28021H84.435ZM90.1626 3.10043L87.8509 6.03323L90.4486 9.28021H88.4441L86.0511 6.1589L88.2191 3.10043H90.1626Z" fill="black"/>
<path d="M93.0872 9.28021H91.5533V3.10043H93.0872V7.0178L95.9099 3.10043H97.4443V9.28021H95.9099V5.36286L93.0872 9.28021Z" fill="black"/>
<path d="M100.901 9.28017H99.3671V3.10037H100.901V7.01772L103.724 3.10037H105.258V9.28017H103.724V5.36282L100.901 9.28017ZM100.267 0H101.678C101.678 0.293278 101.74 0.52371 101.842 0.712249C101.944 0.900784 102.128 1.00553 102.374 1.00553C102.578 1.00553 102.742 0.900784 102.865 0.712249C102.967 0.52371 103.029 0.293278 103.029 0H104.44C104.44 0.628453 104.256 1.13122 103.908 1.52924C103.56 1.92726 103.049 2.13674 102.395 2.13674C101.678 2.13674 101.147 1.9482 100.799 1.55018C100.431 1.15216 100.267 0.6494 100.267 0Z" fill="black"/>
<path d="M34.1782 14.7896H36.3055C36.2646 14.3287 36.101 13.9517 35.7941 13.7003C35.4873 13.4489 35.1191 13.3232 34.6691 13.3232C34.1373 13.3232 33.6873 13.4908 33.36 13.8469L33.1555 13.4908C33.3396 13.3023 33.5646 13.1556 33.8305 13.0509C34.1169 12.9461 34.3827 12.8833 34.6691 12.8833C35.3032 12.8833 35.8146 13.0718 36.2237 13.4698C36.6328 13.8679 36.8169 14.3916 36.8169 15.041C36.8169 15.6485 36.6328 16.1722 36.2441 16.5702C35.8555 16.9892 35.3851 17.1987 34.8123 17.1987C34.0964 17.1987 33.5646 17.0311 33.2168 16.6959L33.4419 16.3398C33.7487 16.6121 34.1987 16.7588 34.7714 16.7588C35.2009 16.7588 35.5691 16.6121 35.8759 16.3398C36.1623 16.0465 36.3259 15.6904 36.3668 15.2086H34.1782V14.7896Z" fill="black"/>
<path d="M37.9418 17.1149V12.9671H38.4122V17.1149H37.9418ZM41.2554 12.9671L39.2509 14.9572L41.419 17.1149H40.785L38.6782 14.9781L40.6418 12.9671H41.2554Z" fill="black"/>
<path d="M45.2646 16.1722L45.4895 16.5283C45.3259 16.7378 45.1009 16.9054 44.835 17.0311C44.5691 17.1568 44.2623 17.1987 43.9759 17.1987C43.3418 17.1987 42.8305 17.0101 42.4214 16.6121C42.0123 16.2141 41.8282 15.6904 41.8282 15.041C41.8282 14.4335 42.0123 13.9098 42.4009 13.5118C42.7896 13.0928 43.26 12.8833 43.8327 12.8833C44.5282 12.8833 45.06 13.0509 45.4078 13.407L45.1827 13.7841C44.8555 13.4908 44.4259 13.3232 43.8941 13.3232C43.4646 13.3232 43.0759 13.4908 42.7691 13.805C42.4623 14.1402 42.2986 14.5382 42.2986 15.02C42.2986 15.5438 42.4623 15.9418 42.7691 16.256C43.0964 16.5702 43.485 16.7169 43.9759 16.7169C44.5282 16.7378 44.9373 16.5493 45.2646 16.1722Z" fill="black"/>
<path d="M49.5803 17.1149V13.407H47.0032V17.1149H46.5326V12.9671H50.0509V17.1149H49.5803Z" fill="black"/>
<path d="M51.7693 16.5912C51.3805 16.1931 51.1762 15.6694 51.1762 15.041C51.1762 14.4125 51.3805 13.8888 51.7693 13.4908C52.1578 13.0928 52.6692 12.8833 53.3033 12.8833C53.9373 12.8833 54.4282 13.0928 54.8372 13.4908C55.2261 13.8888 55.4304 14.4125 55.4304 15.041C55.4304 15.6694 55.2261 16.1931 54.8372 16.5912C54.4488 16.9892 53.9373 17.1987 53.3033 17.1987C52.6899 17.1987 52.1784 16.9892 51.7693 16.5912ZM52.1376 13.805C51.8304 14.1193 51.667 14.5383 51.667 15.041C51.667 15.5438 51.8102 15.9418 52.1169 16.2769C52.4236 16.5912 52.8125 16.7588 53.2826 16.7588C53.7532 16.7588 54.1623 16.5912 54.4488 16.2769C54.7555 15.9627 54.8987 15.5438 54.8987 15.041C54.8987 14.5383 54.7555 14.1402 54.4488 13.805C54.1421 13.4908 53.7532 13.3232 53.2826 13.3232C52.8327 13.3442 52.4443 13.4908 52.1376 13.805Z" fill="black"/>
<path d="M56.5759 18.9583V12.9671H57.0465V13.5117C57.21 13.3232 57.4147 13.1765 57.6806 13.0509C57.9464 12.9251 58.2329 12.8623 58.5189 12.8623C59.0919 12.8623 59.5625 13.0509 59.8894 13.4489C60.2374 13.826 60.4009 14.3497 60.4009 14.9571C60.4009 15.6066 60.2168 16.1303 59.8283 16.5492C59.4395 16.9682 58.9487 17.1777 58.3146 17.1777C57.7623 17.1777 57.3326 17.052 57.0259 16.8216V18.9374H56.5759V18.9583ZM58.417 13.3441C58.1512 13.3441 57.8849 13.407 57.6397 13.5327C57.3941 13.6584 57.1898 13.805 57.0667 13.9936V16.3816C57.435 16.633 57.8647 16.7587 58.3353 16.7587C58.8261 16.7587 59.2145 16.5912 59.501 16.2769C59.8077 15.9417 59.9509 15.5228 59.9509 15.02C59.9509 14.5172 59.8077 14.1192 59.5419 13.805C59.2554 13.4908 58.8872 13.3441 58.417 13.3441Z" fill="black"/>
<path d="M60.81 13.4489V12.9671H64.5123V13.4489H62.8966V17.1149H62.4261V13.4489H60.81Z" fill="black"/>
<path d="M68.4397 17.1149V15.2295H65.8011V17.1149H65.3305V12.9671H65.8011V14.7896H68.4397V12.9671H68.9102V17.1149H68.4397Z" fill="black"/>
<path d="M70.3216 12.9671H70.7918V14.3706H71.4873C72.5511 14.3706 73.0828 14.8315 73.0828 15.7323C73.0828 16.1303 72.9602 16.4655 72.6943 16.7378C72.4285 16.9892 72.0194 17.1358 71.4262 17.1358H70.3216V12.9671ZM71.4262 14.8105H70.8124V16.6749H71.4262C71.8555 16.6749 72.1622 16.5911 72.3463 16.4445C72.5304 16.2979 72.6126 16.0465 72.6126 15.7532C72.6126 15.1248 72.2035 14.8105 71.4262 14.8105ZM74.0239 17.1149V12.9671H74.4941V17.1149H74.0239Z" fill="black"/>
<path d="M76.3963 17.115H75.9261V12.9672H76.3963V16.4237L79.0964 12.9672H79.567V17.115H79.0964V13.6585L76.3963 17.115ZM76.5395 10.8095H76.9692C76.9692 11.04 77.051 11.2285 77.1942 11.3961C77.3577 11.5427 77.5418 11.6265 77.8076 11.6265C78.033 11.6265 78.2373 11.5427 78.3806 11.3961C78.5238 11.2494 78.6056 11.04 78.6056 10.8095H79.0353C79.0353 11.1447 78.9123 11.438 78.6873 11.6475C78.4623 11.8779 78.1556 11.9826 77.8076 11.9826C77.4192 11.9826 77.1125 11.8779 76.8875 11.6475C76.6625 11.438 76.5395 11.1447 76.5395 10.8095Z" fill="black"/>
<path d="M83.1059 12.9671H83.576V16.6749H86.1329V12.9671H86.6035V16.6749H87.2784V18.1832H86.8284V17.1358H83.1059V12.9671Z" fill="black"/>
<path d="M91.3485 16.2351L91.4918 16.6121C91.1236 17.0101 90.6328 17.1987 89.9987 17.1987C89.3646 17.1987 88.833 17.0101 88.4441 16.6121C88.0557 16.2141 87.8509 15.6904 87.8509 15.041C87.8509 14.4125 88.035 13.8888 88.4033 13.4908C88.7715 13.0928 89.2623 12.8833 89.917 12.8833C90.4486 12.8833 90.8784 13.0509 91.2259 13.407C91.5739 13.7422 91.7576 14.2031 91.7576 14.7687C91.7576 14.9153 91.758 15.041 91.7374 15.1457H88.4033C88.4239 15.6485 88.5874 16.0465 88.8738 16.3189C89.1805 16.6121 89.569 16.7378 90.0602 16.7378C90.5919 16.7378 91.0216 16.5702 91.3485 16.2351ZM89.8555 13.3442C89.4262 13.3442 89.058 13.4698 88.7921 13.7422C88.5258 13.9936 88.383 14.3497 88.3417 14.7687H91.2668C91.2668 14.3287 91.1236 13.9936 90.8784 13.7422C90.6328 13.4698 90.2852 13.3442 89.8555 13.3442Z" fill="black"/>
<path d="M95.9714 17.1149V15.2295H93.3328V17.1149H92.8623V12.9671H93.3328V14.7896H95.9714V12.9671H96.442V17.1149H95.9714Z" fill="black"/>
<path d="M97.2602 13.4489V12.9671H100.963V13.4489H99.3465V17.1149H98.8759V13.4489H97.2602Z" fill="black"/>
<path d="M101.781 18.9583V12.9671H102.251V13.5117C102.415 13.3232 102.62 13.1765 102.885 13.0509C103.151 12.9251 103.438 12.8623 103.724 12.8623C104.297 12.8623 104.767 13.0509 105.094 13.4489C105.442 13.826 105.606 14.3497 105.606 14.9571C105.606 15.6066 105.422 16.1303 105.033 16.5492C104.644 16.9682 104.153 17.1777 103.519 17.1777C102.967 17.1777 102.537 17.052 102.231 16.8216V18.9374H101.781V18.9583ZM103.601 13.3441C103.335 13.3441 103.069 13.407 102.824 13.5327C102.578 13.6584 102.374 13.805 102.251 13.9936V16.3816C102.62 16.633 103.049 16.7587 103.519 16.7587C104.01 16.7587 104.399 16.5912 104.685 16.2769C104.992 15.9417 105.135 15.5228 105.135 15.02C105.135 14.5172 104.992 14.1192 104.726 13.805C104.46 13.4908 104.092 13.3441 103.601 13.3441Z" fill="black"/>
</svg>
