<svg width="58" height="19" viewBox="0 0 58 19" fill="none" xmlns="http://www.w3.org/2000/svg">
<path fill-rule="evenodd" clip-rule="evenodd" d="M29.9637 4.20049H30.7484L30.445 3.1824H30.2671L29.9637 4.20049ZM30.9101 4.73507H29.8105L29.5767 5.5277H28.9822L29.8995 2.59497H30.833L31.7551 5.5277H31.1439L30.9101 4.73507ZM32.7758 3.14145V5.5277H32.1628V2.59497H34.2836V3.14145H32.7758ZM36.975 4.98078V5.5277H34.7728V2.59497H36.9301V3.14145H35.3814V3.7575H36.5866V4.2912H35.3814V4.98078H36.975ZM40.0737 2.59497V5.5277H39.4603V4.29912H38.1586V5.5277H37.5457V2.59497H38.1586V3.73724H39.4603V2.59497H40.0737ZM42.8466 3.13352H41.9307V5.5277H41.3159V3.13352H40.4V2.59497H42.8466V3.13352ZM45.7009 4.62762C45.6111 5.2058 45.1668 5.60916 44.486 5.60916C43.5965 5.60916 43.0914 4.99003 43.0914 4.10185C43.0914 3.21411 43.6009 2.59497 44.486 2.59497C45.1342 2.59497 45.5706 2.96179 45.6723 3.49505H45.0364C44.9669 3.26298 44.7753 3.1366 44.486 3.1366C43.9638 3.1366 43.7154 3.56022 43.7154 4.10185C43.7154 4.63951 43.9638 5.06753 44.486 5.06753C44.8 5.06753 45.0118 4.9046 45.069 4.62718L45.7009 4.62762ZM48.3923 3.13352H47.4764V5.5277H46.8617V3.13352H45.9458V2.59497H48.3923V3.13352ZM50.6126 4.64436C50.6126 4.39776 50.4589 4.2705 50.1436 4.2705H49.4175V5.00588H50.1352C50.4426 5.00588 50.6126 4.89007 50.6126 4.64436ZM50.5294 3.429C50.5294 3.2119 50.388 3.1049 50.1101 3.1049H49.4175V3.75882H50.1141C50.3928 3.75794 50.5294 3.65093 50.5294 3.429ZM51.2471 4.67694C51.2471 5.16573 50.9274 5.5277 50.2268 5.5277H48.8001V2.59497H50.189C50.8446 2.59497 51.1639 2.95254 51.1639 3.37131C51.1639 3.6386 51.0437 3.86846 50.853 3.9627V4.04504C51.0644 4.13135 51.2471 4.38543 51.2471 4.67694ZM53.8822 4.10229C53.8822 3.56462 53.6316 3.1366 53.0821 3.1366C52.5365 3.1366 52.2819 3.56462 52.2819 4.10185C52.2819 4.63951 52.5365 5.06753 53.0821 5.06753C53.6316 5.06753 53.8822 4.63995 53.8822 4.10229ZM54.5092 4.10229C54.5092 4.95745 54.0085 5.60916 53.0821 5.60916C52.1547 5.60916 51.6549 4.95745 51.6549 4.10185C51.6549 3.24669 52.1547 2.59497 53.0821 2.59497C54.0085 2.59497 54.5092 3.24713 54.5092 4.10229ZM29.7911 7.97119V10.0206H29.8717L30.9638 7.97119H31.7551V10.9039H31.1862V8.80962H31.1051L29.9888 10.9039H29.2266V7.97119H29.7911ZM35.0172 7.97119V10.9039H34.4038V9.67534H33.1021V10.9039H32.4887V7.97119H33.1021V9.11346H34.4038V7.97119H35.0172ZM38.1978 7.97119V10.9039H37.5849V9.67534H36.2832V10.9039H35.6698V7.97119H36.2832V9.11346H37.5849V7.97119H38.1978ZM40.9143 9.47806C40.9143 8.94084 40.6642 8.51282 40.1147 8.51282C39.5686 8.51282 39.3146 8.9404 39.3146 9.47806C39.3146 10.0157 39.5691 10.4433 40.1147 10.4433C40.6642 10.4433 40.9143 10.0162 40.9143 9.47806ZM41.5418 9.47806C41.5418 10.3337 41.0412 10.9854 40.1147 10.9854C39.1873 10.9854 38.6871 10.3337 38.6871 9.47806C38.6871 8.62291 39.1873 7.97119 40.1147 7.97119C41.0412 7.97119 41.5418 8.62291 41.5418 9.47806ZM43.9246 10.0206C43.9246 9.77398 43.7713 9.64672 43.4556 9.64672H42.7299V10.3821H43.4477C43.755 10.3821 43.9246 10.2663 43.9246 10.0206ZM43.8413 8.80521C43.8413 8.58812 43.7004 8.48112 43.4221 8.48112H42.7299V9.13459H43.4265C43.7053 9.13371 43.8413 9.02715 43.8413 8.80521ZM44.5591 10.0532C44.5591 10.5419 44.2394 10.9039 43.5388 10.9039H42.1121V7.97119H43.5014C44.1571 7.97119 44.4759 8.32876 44.4759 8.74753C44.4759 9.01482 44.3561 9.24468 44.1654 9.33892V9.42126C44.3764 9.50757 44.5591 9.76165 44.5591 10.0532ZM45.7859 9.5767H46.5706L46.2672 8.55862H46.0893L45.7859 9.5767ZM46.7318 10.1113H45.6327L45.3984 10.9039H44.8039L45.7216 7.97119H46.6552L47.5768 10.9039H46.966L46.7318 10.1113ZM50.2511 10.9154H47.9846V7.97119H48.5887V10.3667H49.8213V7.97119H50.4254V10.3667H50.8389V11.6371H50.2511V10.9154ZM51.8927 7.97119V10.0206H51.9737L53.0649 7.97119H53.8566V10.9039H53.2881V8.80962H53.2076L52.0908 10.9039H51.3286V7.97119H51.8927ZM56.6198 7.23757C56.5872 7.62288 56.3116 7.86243 55.8523 7.86243C55.3939 7.86243 55.1173 7.62288 55.0856 7.23757H55.5317C55.548 7.3754 55.6532 7.48945 55.8523 7.48945C56.0474 7.48945 56.1522 7.38024 56.1729 7.23757H56.6198ZM55.1548 8.00818V10.0316H55.2358L56.3279 8.00818H57.1187V10.9035H56.5502V8.83516H56.4688L55.3529 10.9035H54.5907V8.00818H55.1548ZM29.2266 13.4302H30.1848L30.6621 14.6006H30.7436L31.2209 13.4302H32.1628V16.3629H31.5908V14.0753H31.5085L30.9743 15.3809H30.4151L29.881 14.0753H29.7982V16.3625H29.2266V13.4302ZM34.8794 14.8556C34.8794 14.3184 34.6292 13.8904 34.0797 13.8904C33.5337 13.8904 33.2796 14.3179 33.2796 14.8556C33.2796 15.3933 33.5341 15.8208 34.0797 15.8208C34.6292 15.8208 34.8794 15.3937 34.8794 14.8556ZM35.5069 14.8556C35.5069 15.7112 35.0057 16.3625 34.0797 16.3625C33.1523 16.3625 32.6521 15.7108 32.6521 14.8556C32.6521 14.0004 33.1523 13.3487 34.0797 13.3487C35.0057 13.3487 35.5069 14.0004 35.5069 14.8556ZM38.5241 15.3814C38.4347 15.9596 37.99 16.3625 37.3088 16.3625C36.4201 16.3625 35.9146 15.7438 35.9146 14.8556C35.9146 13.9679 36.4241 13.3487 37.3092 13.3487C37.9574 13.3487 38.3938 13.7151 38.4959 14.2488H37.8596C37.7901 14.0167 37.5985 13.8904 37.3092 13.8904C36.7869 13.8904 36.5386 14.314 36.5386 14.8556C36.5386 15.3933 36.7869 15.8208 37.3092 15.8208C37.6232 15.8208 37.835 15.6579 37.8922 15.3814H38.5241ZM39.0948 13.4302H39.7109V14.576H40.3916L40.9504 13.4302H41.5854L40.9091 14.8556L41.6237 16.3625H40.9874L40.3974 15.1299H39.7113V16.3629H39.0948V13.4302ZM43.8435 15.4796C43.8435 15.233 43.6899 15.1053 43.3746 15.1053H42.6484V15.8411H43.3662C43.6736 15.8411 43.8435 15.7257 43.8435 15.4796ZM43.7599 14.2642C43.7599 14.0467 43.619 13.9401 43.3411 13.9401H42.6484V14.5932H43.3451C43.6238 14.5923 43.7599 14.4857 43.7599 14.2642ZM44.4776 15.5122C44.4776 16.001 44.1579 16.3625 43.4574 16.3625H42.0311V13.4298H43.4199C44.0756 13.4298 44.3949 13.7878 44.3949 14.2065C44.3949 14.4734 44.2746 14.7032 44.084 14.7979V14.8798C44.2953 14.9666 44.4776 15.2207 44.4776 15.5122ZM47.6151 16.3625H48.2294V13.4298H47.6151V16.3625ZM46.6578 15.3933C46.6578 15.1181 46.5094 14.9622 46.1008 14.9622H45.5812V15.8253H46.1008C46.5094 15.8253 46.6578 15.6725 46.6578 15.3933ZM44.9669 16.3625V13.4298H45.5812V14.4241H46.195C46.8841 14.4241 47.2879 14.7896 47.2879 15.3893C47.2879 15.997 46.8837 16.3625 46.195 16.3625H44.9669ZM4.90702 16.8491C4.77932 17.0076 4.58381 17.0609 4.46844 16.9688C4.36716 16.8874 4.36407 16.7187 4.45214 16.5716C4.37929 16.5886 4.3151 16.6315 4.2716 16.6923C4.16239 16.8499 4.2258 17.0847 4.41471 17.2163C4.60406 17.3493 4.84625 17.3277 4.9559 17.171C5.03208 17.0618 5.02327 16.9147 4.94709 16.7909C4.93565 16.8103 4.92243 16.8306 4.90702 16.8491ZM11.3793 5.66861C11.1516 5.45064 11.219 5.01998 11.219 5.01998C11.123 5.10056 11.0006 5.66288 11.2036 5.94779C11.4387 6.27805 11.6492 6.32385 11.8355 6.68361C11.8584 6.63253 11.8293 6.50395 11.7809 6.40751C11.7078 6.26088 11.6796 6.13934 11.8513 6.08914C12.3392 5.94779 12.7923 6.65059 13.0588 6.6387C13.4313 6.62284 13.5145 6.28862 13.5308 6.27277C13.5467 6.25647 13.3349 6.4172 13.0949 6.38858C12.7153 6.34278 12.5391 5.91653 12.1124 5.82934C11.8394 5.77385 11.6082 5.88746 11.3793 5.66861ZM11.1203 13.4984C10.9935 13.6838 11.0904 13.9458 11.4259 14.0436C11.7285 14.1317 11.9288 14.2237 12.0768 14.373C12.2943 14.5901 12.396 14.6174 12.448 14.6161L3.15664 1.73453L3.03334 1.82392L10.7804 12.5658C10.8693 12.6891 11.2322 13.3338 11.1203 13.4984ZM11.0842 14.0854C10.7306 14.0942 10.3255 14.2202 9.91731 13.8424C9.38801 13.3536 8.83669 13.6662 8.83669 13.6662C8.83669 13.6662 9.18501 14.0132 8.99082 14.1563C8.67553 14.3897 8.90759 14.6627 8.87985 14.7702C8.85123 14.8763 8.53374 14.8983 8.00179 14.6557C7.76426 14.5452 7.49908 14.5084 7.24043 14.55C7.1026 14.5729 7.14884 14.6729 7.17922 14.7015C7.17922 14.7015 7.40336 14.9062 7.49011 14.963C7.56056 15.0075 7.73847 15.1555 7.80496 15.1075C7.86969 15.0612 7.72834 14.7992 7.72834 14.7992C7.72834 14.7992 8.77681 15.1493 9.14362 15.1493C9.56944 15.1493 9.17048 14.4404 9.50558 14.4069C9.67468 14.3893 9.88605 14.6535 10.2335 14.7032C10.4766 14.7385 10.7099 14.6354 10.9486 14.5755C11.2022 14.5126 11.2982 14.827 11.3335 15.104C11.3396 15.1493 11.3489 15.2638 11.3978 15.3479C11.4814 14.9485 11.5933 14.0735 11.0842 14.0854ZM13.7373 14.9054C13.5991 14.5333 13.3353 14.694 13.2173 14.6526C13.0988 14.6117 12.946 14.4646 12.8967 14.0691C12.8474 13.6737 12.5114 13.8873 12.5114 13.8873C12.5114 13.8873 12.9002 14.6671 13.0566 15.0824C13.2138 15.4972 13.3459 15.1757 13.537 15.4034C13.7294 15.6311 13.7074 16.8006 13.5982 17.1771C13.473 17.6071 13.2165 17.9871 12.8646 18.2639C13.1349 18.2326 13.6396 17.702 13.7809 17.3541C13.9439 16.9547 13.8505 16.5862 13.8505 16.5862L14.0777 16.5659L13.939 16.2035L14.1587 16.17C14.1587 16.17 13.8747 15.2761 13.7373 14.9054ZM4.70314 15.6451C4.41793 15.5701 4.12058 15.5529 3.82861 15.5945C3.52213 15.6403 3.27509 15.7266 3.01837 15.7134C2.76341 15.7077 2.5243 15.6077 2.36841 15.4228C2.29796 15.3418 2.24776 15.2466 2.21077 15.1454C2.33407 14.8908 2.57362 14.6323 3.00075 14.395C4.49354 13.5649 3.99946 12.6292 3.90655 11.5442C3.85943 10.9937 3.97128 10.4917 4.25443 10.2372C4.65382 9.87702 5.32535 9.9215 5.32535 9.9215C5.24917 9.8233 4.34954 9.5014 3.6626 9.70044C2.92721 9.91445 2.79071 10.4468 2.66389 10.8255C2.55468 11.154 2.41157 11.5402 1.76117 11.8132C0.667786 12.2721 0.741324 13.1325 0.741324 13.1325C0.741324 13.1325 0.34501 12.2826 1.40757 11.5644C2.75724 10.6529 2.23763 9.95188 2.68899 9.53399C3.04127 9.20813 3.46312 9.26009 4.10691 9.43579C3.99154 9.29928 2.28078 8.58152 2.08263 10.1051C1.91441 11.4006 0.677914 11.2201 0.462583 12.439C0.311984 13.3034 1.12971 14.0278 1.12971 14.0278C1.12971 14.0278 0.475794 12.7186 1.76161 12.1893C2.65112 11.8238 3.15752 11.4019 3.28962 10.9854C3.28214 11.1188 3.28346 11.2602 3.28698 11.4152C3.30107 12.0013 3.57981 12.4588 3.49394 13.2831C3.44683 13.7367 2.61809 14.1894 2.15572 14.6552C2.17158 14.4465 2.22794 14.2435 2.3323 14.0762C2.449 13.8978 2.64055 13.7063 2.72421 13.4949C2.79328 13.3409 2.82444 13.1726 2.8151 13.004C2.80575 12.8355 2.75617 12.6716 2.67049 12.5262C2.64935 12.535 2.62998 12.5429 2.6106 12.5491C2.7044 12.7688 2.75636 13.1021 2.57538 13.4254C2.48599 13.6112 2.32658 13.7424 2.15705 13.9595C1.99211 14.1882 1.89656 14.4595 1.88183 14.7411C1.87742 14.8345 1.88667 14.9305 1.90252 15.0273C1.71317 15.5223 1.92894 16.1617 2.10156 16.4576C2.30808 16.8099 2.50228 17.0675 2.401 17.4761C2.29972 17.8856 2.65508 17.7439 2.90652 17.7478L3.14387 17.7491C3.30944 17.7487 3.37725 17.6285 3.27597 17.466C3.09983 17.1855 2.82065 16.7702 2.59783 16.5923C2.39924 16.4334 2.07426 16.0155 2.10464 15.5311C2.39792 15.8799 2.72818 15.9895 3.00075 16.0146C3.32089 16.0428 3.62341 15.9221 3.86956 15.8834C4.12322 15.8415 4.38264 15.8497 4.63313 15.9076C4.8632 15.9625 5.07712 16.0708 5.25754 16.2238C5.42796 16.3691 5.52175 16.5628 5.57107 16.75C5.66354 17.1181 5.41034 17.4634 5.20602 17.6443C5.21835 17.6584 5.23464 17.6716 5.24829 17.684C5.60586 17.4686 5.79873 17.093 5.72871 16.6447C5.66354 16.2035 5.26459 15.7812 4.70314 15.6451ZM4.41207 8.75061C4.85066 9.21386 5.32227 9.02759 5.53276 9.05269C5.74325 9.07691 5.98632 9.61722 5.85818 10.1408C5.73047 10.6648 5.67939 10.5741 5.59176 10.9026C5.48168 11.3165 5.99468 11.6129 5.87579 11.9947C5.84276 12.1003 5.76923 12.2527 5.85818 12.3712C5.99645 12.5574 6.22102 12.3122 6.50417 12.354C6.68189 12.3778 6.86253 12.3424 7.01805 12.2531C6.98459 12.0915 6.34564 12.1906 6.20253 11.9295C6.13956 11.8146 5.97223 10.6243 6.343 10.0924C6.68339 9.60445 6.36722 9.45208 6.13427 9.05797C6.48852 8.86995 6.84539 8.68689 7.20476 8.50886C7.45136 8.792 7.62485 9.0364 7.77457 9.37811C7.85384 9.54764 7.908 9.73039 7.90183 9.91357C7.90624 10.0998 7.8371 10.2835 7.71953 10.449C7.87541 10.4248 8.01765 10.1465 8.0608 9.93163C8.10175 9.7163 8.07049 9.4948 8.01236 9.29004C7.79527 8.62599 7.29019 8.1513 7.29019 8.1513C7.29019 8.1513 6.60765 8.38512 5.97443 8.72903C5.77451 8.35386 5.57371 8.42079 5.32403 8.44193C5.07656 8.46394 4.92728 8.20238 4.92728 8.20238C5.11927 8.26402 5.38612 8.27415 5.74413 8.13324C6.54644 7.81619 6.24172 7.15302 6.24172 7.15302C6.24172 7.15302 6.25845 7.63433 5.77891 7.70258C5.4808 7.74441 4.69786 7.55066 4.69786 7.55066C4.69786 7.55066 5.32491 7.47756 5.45305 7.11648C5.62655 6.62196 6.12459 6.8166 6.12459 6.8166C6.12459 6.8166 5.85906 6.50395 5.44953 6.74834C5.19985 6.89894 4.78549 6.94694 4.27688 6.68934C3.7696 6.43261 3.58554 6.85887 3.48249 6.86944C3.38033 6.88089 3.30019 6.71312 3.35744 6.53786C3.41468 6.36216 3.99814 6.19703 4.87664 6.16356C5.45614 6.14154 5.7406 6.25515 5.86654 6.33574C5.86786 6.28818 5.71154 6.07329 5.23376 5.95616C4.75598 5.83814 4.78725 5.64263 4.80971 5.3062C4.83172 4.96934 4.3425 5.10364 4.2236 5.06137C4.10471 5.01909 4.21479 4.75445 4.21479 4.75445C4.04438 4.80376 3.9136 4.94203 3.91976 5.14812C3.92328 5.28595 4.05539 5.38502 4.18661 5.44976C4.31828 5.51493 4.33985 5.63294 4.10295 5.77077C3.91227 5.88174 3.63794 6.02617 3.27069 6.18382C2.45384 6.53389 3.47413 7.13717 3.11524 7.32212C2.75504 7.50706 2.66741 7.74838 2.64715 7.88048C2.60312 8.17992 2.80304 8.40273 2.80304 8.40273C3.50539 8.02139 3.97304 8.28824 4.41207 8.75061ZM8.56896 7.68056C8.56896 7.38025 8.64646 7.23581 8.72925 7.23229C8.98201 7.22216 9.03617 7.58016 9.0397 7.67748C9.05026 7.96283 8.83978 8.09977 8.83978 8.09977C9.02032 8.11519 9.16299 7.86507 9.18633 7.7061C9.22068 7.47052 9.17885 7.38905 9.09562 7.23317C9.09562 7.23317 9.62448 7.74485 9.56811 8.3129C9.50426 8.95669 8.77857 9.29444 8.77857 9.29444C8.99346 9.3715 9.61523 9.30897 10.0133 8.80169C10.233 8.52207 10.329 8.09625 10.0626 7.42472C9.82131 6.81528 9.36115 6.29919 9.85038 5.13094C10.3277 3.9922 11.5898 3.84336 12.3489 4.38455C12.3921 4.41434 12.4251 4.4568 12.4432 4.50609C12.4925 4.64083 12.138 4.81697 12.2934 4.898C12.4 4.9548 12.54 4.96934 12.6607 5.06093C12.7717 5.14459 12.7937 5.21637 12.85 5.26833C12.8923 5.30796 12.9112 5.31589 12.9522 5.31589C12.6087 4.91385 12.5515 4.45545 12.496 3.97106C12.2265 3.90193 11.7989 3.68308 11.3762 3.63376C11.1111 3.60249 10.4699 3.56066 9.82704 3.87683C9.10223 4.23219 8.33602 4.92486 8.33602 6.52949C8.33558 7.21996 8.56896 7.71975 8.56896 7.68056ZM0.506178 11.4165C0.879153 11.3152 0.879153 11.0378 0.883997 10.981C0.943884 11.0602 0.964581 11.147 0.965902 11.2597C1.13103 11.0448 1.0914 10.6727 0.687161 10.4504C0.687161 10.4504 0.710059 10.9391 0.397412 11.1118C0.0715535 11.291 0.0204731 11.4055 0.00241878 11.5825C-0.00732535 11.6687 0.012552 11.7557 0.0587834 11.8291C0.101057 11.8995 0.172834 11.9484 0.240207 11.9652C0.141569 11.8326 0.122634 11.5204 0.506178 11.4165ZM8.31532 4.58315C7.40028 4.63511 7.08058 4.30749 6.45529 4.00629C5.82823 3.70377 5.28925 3.92483 5.19501 4.06706C5.48608 4.08512 5.81722 4.20093 6.44516 4.59504C7.71204 5.39075 8.31532 4.58315 8.31532 4.58315ZM7.90536 2.64209C7.77237 2.67732 7.45048 2.72972 7.60064 3.47215C7.75168 4.21502 8.15283 4.03491 8.26028 3.9398C8.26028 3.9398 7.71513 3.883 7.69927 3.23965C7.68386 2.59409 8.42805 2.71299 8.42805 2.71299C8.38358 2.66279 8.11584 2.58573 7.90536 2.64209ZM16.058 12.0845C15.8779 11.4438 15.3037 10.1368 14.9109 9.5406C14.5159 8.94436 14.3142 9.37194 14.157 9.50669C13.9993 9.64144 13.5379 10.4182 13.3353 9.4173C13.1327 8.41506 12.0984 7.54758 12.0984 7.54758C12.3119 8.30189 12.2547 8.85409 12.1996 9.33804C12.1437 9.82154 12.2666 9.99063 12.2666 10.2826C12.2666 10.5754 11.3903 10.767 11.344 10.992C11.2996 11.2174 12.6492 12.1413 13.9342 11.2152C14.3208 10.9365 14.5612 12.0171 14.6841 12.3095C14.8087 12.6028 14.5608 12.6926 14.8532 13.0304C15.146 13.3681 14.9206 13.6526 14.9206 13.8631C14.9206 14.0603 15.5005 14.5562 15.6071 14.4478C15.7938 14.2616 15.3706 13.1532 15.2019 12.7706C15.0333 12.3874 14.7633 11.1492 14.5731 10.8114C14.463 10.6186 13.8985 10.7555 13.8985 10.7555L13.8589 10.6058C13.8589 10.6058 13.9373 10.5054 14.0099 10.4288C14.5956 9.82066 14.5502 10.0686 15.1579 10.8119C15.7647 11.5539 15.0333 11.8476 15.5617 12.2302C16.0906 12.6133 16.2376 12.7256 16.058 12.0845ZM6.42711 2.1238C6.42711 2.1238 6.5394 2.16211 6.75517 2.16696C6.97094 2.17136 7.0775 1.97144 7.0775 1.97144C6.55261 1.91904 6.39936 1.73365 6.39936 1.73365C6.39936 1.73365 6.8996 1.70811 7.1528 1.67465C7.406 1.64074 7.86749 1.517 7.86749 1.517C7.86749 1.517 7.84987 1.93093 7.84679 2.17136C7.84459 2.41135 8.15327 2.35851 8.25632 2.32592C8.38622 2.28497 8.40603 1.80631 8.42805 1.39635C8.4439 1.08634 8.21448 1.0837 8.08326 1.13874C7.8895 1.21933 7.52269 1.40824 7.1255 1.52933C6.72875 1.65043 6.10697 1.56236 6.10697 1.56236L6.07307 1.69138L6.59576 2.01283L6.42711 2.1238ZM7.28711 4.08952L7.4289 4.02875C7.4289 4.02875 7.32057 3.7117 7.31265 3.43076C7.30648 3.14893 7.42185 2.52628 7.42185 2.52628H7.28755C7.28755 2.52628 7.22678 2.9838 7.14752 3.38452C7.06914 3.78524 6.85909 3.70686 6.75649 3.69893C6.65345 3.69144 5.83704 3.57387 5.83704 3.57387V3.69409L6.30161 3.76102C6.71465 3.82047 7.28711 4.08952 7.28711 4.08952ZM7.79615 5.85312C7.45928 6.06889 6.90621 5.96232 6.90621 5.96232C6.98018 6.06624 7.38178 6.18998 7.5839 6.1869C7.75916 6.18294 7.91416 6.1138 8.05199 5.96232C8.35231 5.63382 8.22989 5.08647 8.1568 5.01777C8.1568 5.01777 8.12465 5.64307 7.79615 5.85312ZM7.01717 15.5972C6.24348 14.8248 6.52574 14.9027 7.01717 14.2136C7.3809 13.7032 9.15595 13.2527 10.0503 13.0546L10.0327 12.9727C9.57912 12.9929 8.9001 13.0167 8.218 13.0158C7.04932 13.0149 6.57771 12.5702 6.27475 12.6261C5.11267 12.8437 5.93876 14.1761 4.57588 13.9872C3.21256 13.7992 3.25792 15.2123 3.25792 15.2123C3.64454 14.4263 4.04438 14.5368 4.35218 14.5236C4.70887 14.5082 5.05674 14.7715 5.55698 14.3505C5.66706 14.2589 6.16466 13.4527 6.09332 13.8556C6.05149 14.0907 5.84761 14.3598 5.68512 14.5443C5.56887 14.6764 5.50149 14.7772 5.73796 14.9102L6.07571 15.1048C6.62791 15.4219 6.53631 15.7825 6.17699 15.7645C5.92071 15.7504 5.61819 15.6249 5.36454 15.5985C5.2615 15.5883 5.14481 15.6306 5.3073 15.7086C5.39317 15.7491 5.4896 15.8081 5.57459 15.8922C5.97927 16.2973 5.49533 16.1375 6.65433 16.0749C6.90092 16.0608 7.07618 16.0379 7.2008 16.0124C7.66184 15.9116 7.11889 15.698 7.01717 15.5972ZM12.9782 16.2709C12.8848 16.1256 12.8095 15.9221 12.7228 15.7403C12.5378 15.3532 12.7192 15.4276 12.6052 15.2048C12.4775 14.9582 12.4132 15.2 12.0913 14.7072C12.0283 14.609 11.9002 14.6522 11.8848 14.8878C11.8685 15.1233 12.2635 15.3457 12.4432 15.9164C12.6246 16.4889 12.7734 16.5549 12.6263 16.9054C12.481 17.2568 11.7641 17.2357 11.7641 17.2357C12.3234 17.8178 13.4621 17.0234 12.9782 16.2709ZM19.0061 18.9583L18.7727 18.8738L25.6334 0L25.8654 0.084547L19.0061 18.9583Z" fill="#2B2929"/>
</svg>
