<svg width="16" height="10" viewBox="0 0 16 10" fill="none" xmlns="http://www.w3.org/2000/svg">
<path fill-rule="evenodd" clip-rule="evenodd" d="M14.0557 6.32829C14.0557 6.32829 15.3324 7.58921 15.6483 8.17269C15.6544 8.18111 15.6592 8.19043 15.6625 8.20032C15.7912 8.41587 15.8228 8.58484 15.7596 8.70959C15.653 8.91566 15.2922 9.01909 15.1698 9.02778H12.9133C12.7561 9.02778 12.4293 8.98672 12.0313 8.71196C11.7273 8.49957 11.4249 8.14979 11.132 7.80791C10.6946 7.30023 10.3164 6.85966 9.93347 6.85966C9.88511 6.85955 9.83707 6.86756 9.79135 6.88335C9.50158 6.97493 9.13365 7.38787 9.13365 8.48772C9.13365 8.83197 8.86204 9.02778 8.67176 9.02778H7.63823C7.28609 9.02778 5.45274 8.90461 3.82705 7.19048C1.835 5.09184 0.0458653 0.881934 0.0284951 0.844824C-0.0828322 0.572428 0.150876 0.423991 0.403534 0.423991H2.68219C2.98775 0.423991 3.08723 0.608747 3.15671 0.774554C3.23725 0.964837 3.5357 1.72597 4.02523 2.58106C4.81794 3.97225 5.30509 4.53836 5.69435 4.53836C5.76748 4.53858 5.83937 4.51952 5.90279 4.4831C6.41126 4.20359 6.31652 2.38762 6.29283 2.01337C6.29283 1.94073 6.29204 1.20249 6.03149 0.845614C5.84515 0.589798 5.52775 0.490314 5.33589 0.453994C5.38721 0.379776 5.49617 0.26608 5.63592 0.198968C5.98411 0.0252657 6.61339 0 7.23793 0H7.58454C8.26198 0.00947467 8.43726 0.0529001 8.6836 0.115275C9.17944 0.233708 9.18892 0.555058 9.14549 1.64938C9.13286 1.96205 9.11944 2.31419 9.11944 2.7287C9.11944 2.81713 9.11549 2.91583 9.11549 3.0161C9.10049 3.57748 9.08075 4.20991 9.47711 4.46967C9.52851 4.5017 9.58787 4.51866 9.64844 4.51863C9.78582 4.51863 10.1972 4.51863 11.3128 2.60395C11.8023 1.75834 12.1813 0.761131 12.2074 0.686124C12.2295 0.644277 12.2958 0.526633 12.3764 0.47926C12.4336 0.448779 12.4978 0.433553 12.5627 0.435045H15.2432C15.5354 0.435045 15.7335 0.47926 15.7722 0.589798C15.837 0.769027 15.7596 1.31619 14.5358 2.9711C14.3297 3.24665 14.1489 3.4851 13.9902 3.69354C12.8809 5.14948 12.8809 5.22291 14.0557 6.32829Z" fill="#FF004F"/>
</svg>
